<svg xmlns="http://www.w3.org/2000/svg" width="187" height="60" viewBox="0 0 187 60" fill="none">
<path d="M0 30C0 20.6812 0 16.0218 1.52241 12.3463C3.55229 7.44577 7.44577 3.55229 12.3463 1.52241C16.0218 0 20.6812 0 30 0C39.3188 0 43.9782 0 47.6537 1.52241C52.5542 3.55229 56.4477 7.44577 58.4776 12.3463C60 16.0218 60 20.6812 60 30C60 39.3188 60 43.9782 58.4776 47.6537C56.4477 52.5542 52.5542 56.4477 47.6537 58.4776C43.9782 60 39.3188 60 30 60C20.6812 60 16.0218 60 12.3463 58.4776C7.44577 56.4477 3.55229 52.5542 1.52241 47.6537C0 43.9782 0 39.3188 0 30Z" fill="white"/>
<path d="M77.7249 29.0002L71.8249 21.2502V29.0002H67.5499V11.4502H71.8249V19.1502L77.6749 11.4502H82.6999L75.8999 20.0502L82.9499 29.0002H77.7249Z" fill="black"/>
<path d="M94.9316 29.0002L91.2816 22.3752H90.2566V29.0002H85.9816V11.4502H93.1566C94.5399 11.4502 95.7149 11.6919 96.6816 12.1752C97.6649 12.6585 98.3983 13.3252 98.8816 14.1752C99.3649 15.0085 99.6066 15.9419 99.6066 16.9752C99.6066 18.1419 99.2733 19.1835 98.6066 20.1002C97.9566 21.0169 96.9899 21.6669 95.7066 22.0502L99.7566 29.0002H94.9316ZM90.2566 19.3502H92.9066C93.6899 19.3502 94.2733 19.1585 94.6566 18.7752C95.0566 18.3919 95.2566 17.8502 95.2566 17.1502C95.2566 16.4835 95.0566 15.9585 94.6566 15.5752C94.2733 15.1919 93.6899 15.0002 92.9066 15.0002H90.2566V19.3502Z" fill="black"/>
<path d="M107.565 14.8752V18.4252H113.29V21.7252H107.565V25.5752H114.04V29.0002H103.29V11.4502H114.04V14.8752H107.565Z" fill="black"/>
<path d="M130.441 11.4502V14.8752H125.791V29.0002H121.516V14.8752H116.866V11.4502H130.441Z" fill="black"/>
<path d="M141.886 29.1752C140.236 29.1752 138.719 28.7919 137.336 28.0252C135.969 27.2585 134.878 26.1919 134.061 24.8252C133.261 23.4419 132.861 21.8919 132.861 20.1752C132.861 18.4585 133.261 16.9169 134.061 15.5502C134.878 14.1835 135.969 13.1169 137.336 12.3502C138.719 11.5835 140.236 11.2002 141.886 11.2002C143.536 11.2002 145.044 11.5835 146.411 12.3502C147.794 13.1169 148.878 14.1835 149.661 15.5502C150.461 16.9169 150.861 18.4585 150.861 20.1752C150.861 21.8919 150.461 23.4419 149.661 24.8252C148.861 26.1919 147.778 27.2585 146.411 28.0252C145.044 28.7919 143.536 29.1752 141.886 29.1752ZM141.886 25.2752C143.286 25.2752 144.403 24.8085 145.236 23.8752C146.086 22.9419 146.511 21.7085 146.511 20.1752C146.511 18.6252 146.086 17.3919 145.236 16.4752C144.403 15.5419 143.286 15.0752 141.886 15.0752C140.469 15.0752 139.336 15.5335 138.486 16.4502C137.653 17.3669 137.236 18.6085 137.236 20.1752C137.236 21.7252 137.653 22.9669 138.486 23.9002C139.336 24.8169 140.469 25.2752 141.886 25.2752Z" fill="black"/>
<path d="M160.589 29.1752C159.306 29.1752 158.156 28.9669 157.139 28.5502C156.123 28.1335 155.306 27.5169 154.689 26.7002C154.089 25.8835 153.773 24.9002 153.739 23.7502H158.289C158.356 24.4002 158.581 24.9002 158.964 25.2502C159.348 25.5835 159.848 25.7502 160.464 25.7502C161.098 25.7502 161.598 25.6085 161.964 25.3252C162.331 25.0252 162.514 24.6169 162.514 24.1002C162.514 23.6669 162.364 23.3085 162.064 23.0252C161.781 22.7419 161.423 22.5085 160.989 22.3252C160.573 22.1419 159.973 21.9335 159.189 21.7002C158.056 21.3502 157.131 21.0002 156.414 20.6502C155.698 20.3002 155.081 19.7835 154.564 19.1002C154.048 18.4169 153.789 17.5252 153.789 16.4252C153.789 14.7919 154.381 13.5169 155.564 12.6002C156.748 11.6669 158.289 11.2002 160.189 11.2002C162.123 11.2002 163.681 11.6669 164.864 12.6002C166.048 13.5169 166.681 14.8002 166.764 16.4502H162.139C162.106 15.8835 161.898 15.4419 161.514 15.1252C161.131 14.7919 160.639 14.6252 160.039 14.6252C159.523 14.6252 159.106 14.7669 158.789 15.0502C158.473 15.3169 158.314 15.7085 158.314 16.2252C158.314 16.7919 158.581 17.2335 159.114 17.5502C159.648 17.8669 160.481 18.2085 161.614 18.5752C162.748 18.9585 163.664 19.3252 164.364 19.6752C165.081 20.0252 165.698 20.5335 166.214 21.2002C166.731 21.8669 166.989 22.7252 166.989 23.7752C166.989 24.7752 166.731 25.6835 166.214 26.5002C165.714 27.3169 164.981 27.9669 164.014 28.4502C163.048 28.9335 161.906 29.1752 160.589 29.1752Z" fill="black"/>
<path d="M176.97 29.1752C175.687 29.1752 174.537 28.9669 173.52 28.5502C172.504 28.1335 171.687 27.5169 171.07 26.7002C170.47 25.8835 170.154 24.9002 170.12 23.7502H174.67C174.737 24.4002 174.962 24.9002 175.345 25.2502C175.729 25.5835 176.229 25.7502 176.845 25.7502C177.479 25.7502 177.979 25.6085 178.345 25.3252C178.712 25.0252 178.895 24.6169 178.895 24.1002C178.895 23.6669 178.745 23.3085 178.445 23.0252C178.162 22.7419 177.804 22.5085 177.37 22.3252C176.954 22.1419 176.354 21.9335 175.57 21.7002C174.437 21.3502 173.512 21.0002 172.795 20.6502C172.079 20.3002 171.462 19.7835 170.945 19.1002C170.429 18.4169 170.17 17.5252 170.17 16.4252C170.17 14.7919 170.762 13.5169 171.945 12.6002C173.129 11.6669 174.67 11.2002 176.57 11.2002C178.504 11.2002 180.062 11.6669 181.245 12.6002C182.429 13.5169 183.062 14.8002 183.145 16.4502H178.52C178.487 15.8835 178.279 15.4419 177.895 15.1252C177.512 14.7919 177.02 14.6252 176.42 14.6252C175.904 14.6252 175.487 14.7669 175.17 15.0502C174.854 15.3169 174.695 15.7085 174.695 16.2252C174.695 16.7919 174.962 17.2335 175.495 17.5502C176.029 17.8669 176.862 18.2085 177.995 18.5752C179.129 18.9585 180.045 19.3252 180.745 19.6752C181.462 20.0252 182.079 20.5335 182.595 21.2002C183.112 21.8669 183.37 22.7252 183.37 23.7752C183.37 24.7752 183.112 25.6835 182.595 26.5002C182.095 27.3169 181.362 27.9669 180.395 28.4502C179.429 28.9335 178.287 29.1752 176.97 29.1752Z" fill="black"/>
<path d="M75.2479 38.1342V40.0552H72.0859V50.0002H69.7059V40.0552H66.5439V38.1342H75.2479Z" fill="black"/>
<path d="M79.7045 40.0552V43.0302H83.6995V44.9172H79.7045V48.0622H84.2095V50.0002H77.3245V38.1172H84.2095V40.0552H79.7045Z" fill="black"/>
<path d="M86.1343 44.0502C86.1343 42.8829 86.395 41.8402 86.9163 40.9222C87.449 39.9929 88.1687 39.2732 89.0753 38.7632C89.9933 38.2419 91.019 37.9812 92.1523 37.9812C93.4783 37.9812 94.64 38.3212 95.6373 39.0012C96.6347 39.6812 97.3317 40.6219 97.7283 41.8232H94.9913C94.7193 41.2565 94.334 40.8315 93.8353 40.5482C93.348 40.2649 92.7813 40.1232 92.1353 40.1232C91.444 40.1232 90.8263 40.2875 90.2823 40.6162C89.7497 40.9335 89.3303 41.3869 89.0243 41.9762C88.7297 42.5655 88.5823 43.2569 88.5823 44.0502C88.5823 44.8322 88.7297 45.5235 89.0243 46.1242C89.3303 46.7135 89.7497 47.1725 90.2823 47.5012C90.8263 47.8185 91.444 47.9772 92.1353 47.9772C92.7813 47.9772 93.348 47.8355 93.8353 47.5522C94.334 47.2575 94.7193 46.8269 94.9913 46.2602H97.7283C97.3317 47.4729 96.6347 48.4192 95.6373 49.0992C94.6513 49.7679 93.4897 50.1022 92.1523 50.1022C91.019 50.1022 89.9933 49.8472 89.0753 49.3372C88.1687 48.8159 87.449 48.0962 86.9163 47.1782C86.395 46.2602 86.1343 45.2175 86.1343 44.0502Z" fill="black"/>
<path d="M109.944 38.1342V50.0002H107.564V44.9512H102.481V50.0002H100.101V38.1342H102.481V43.0132H107.564V38.1342H109.944Z" fill="black"/>
<path d="M122.776 50.0002H120.396L115.007 41.8572V50.0002H112.627V38.1172H115.007L120.396 46.2772V38.1172H122.776V50.0002Z" fill="black"/>
<path d="M130.976 50.1192C129.865 50.1192 128.845 49.8585 127.916 49.3372C126.986 48.8159 126.25 48.0962 125.706 47.1782C125.162 46.2489 124.89 45.2005 124.89 44.0332C124.89 42.8772 125.162 41.8402 125.706 40.9222C126.25 39.9929 126.986 39.2675 127.916 38.7462C128.845 38.2249 129.865 37.9642 130.976 37.9642C132.098 37.9642 133.118 38.2249 134.036 38.7462C134.965 39.2675 135.696 39.9929 136.229 40.9222C136.773 41.8402 137.045 42.8772 137.045 44.0332C137.045 45.2005 136.773 46.2489 136.229 47.1782C135.696 48.0962 134.965 48.8159 134.036 49.3372C133.106 49.8585 132.086 50.1192 130.976 50.1192ZM130.976 47.9942C131.69 47.9942 132.319 47.8355 132.863 47.5182C133.407 47.1895 133.832 46.7249 134.138 46.1242C134.444 45.5235 134.597 44.8265 134.597 44.0332C134.597 43.2399 134.444 42.5485 134.138 41.9592C133.832 41.3585 133.407 40.8995 132.863 40.5822C132.319 40.2649 131.69 40.1062 130.976 40.1062C130.262 40.1062 129.627 40.2649 129.072 40.5822C128.528 40.8995 128.103 41.3585 127.797 41.9592C127.491 42.5485 127.338 43.2399 127.338 44.0332C127.338 44.8265 127.491 45.5235 127.797 46.1242C128.103 46.7249 128.528 47.1895 129.072 47.5182C129.627 47.8355 130.262 47.9942 130.976 47.9942Z" fill="black"/>
<path d="M141.535 48.1132H145.445V50.0002H139.155V38.1342H141.535V48.1132Z" fill="black"/>
<path d="M152.806 50.1192C151.695 50.1192 150.675 49.8585 149.746 49.3372C148.817 48.8159 148.08 48.0962 147.536 47.1782C146.992 46.2489 146.72 45.2005 146.72 44.0332C146.72 42.8772 146.992 41.8402 147.536 40.9222C148.08 39.9929 148.817 39.2675 149.746 38.7462C150.675 38.2249 151.695 37.9642 152.806 37.9642C153.928 37.9642 154.948 38.2249 155.866 38.7462C156.795 39.2675 157.526 39.9929 158.059 40.9222C158.603 41.8402 158.875 42.8772 158.875 44.0332C158.875 45.2005 158.603 46.2489 158.059 47.1782C157.526 48.0962 156.795 48.8159 155.866 49.3372C154.937 49.8585 153.917 50.1192 152.806 50.1192ZM152.806 47.9942C153.52 47.9942 154.149 47.8355 154.693 47.5182C155.237 47.1895 155.662 46.7249 155.968 46.1242C156.274 45.5235 156.427 44.8265 156.427 44.0332C156.427 43.2399 156.274 42.5485 155.968 41.9592C155.662 41.3585 155.237 40.8995 154.693 40.5822C154.149 40.2649 153.52 40.1062 152.806 40.1062C152.092 40.1062 151.457 40.2649 150.902 40.5822C150.358 40.8995 149.933 41.3585 149.627 41.9592C149.321 42.5485 149.168 43.2399 149.168 44.0332C149.168 44.8265 149.321 45.5235 149.627 46.1242C149.933 46.7249 150.358 47.1895 150.902 47.5182C151.457 47.8355 152.092 47.9942 152.806 47.9942Z" fill="black"/>
<path d="M169.248 41.7042C168.976 41.2055 168.602 40.8259 168.126 40.5652C167.65 40.3045 167.094 40.1742 166.46 40.1742C165.757 40.1742 165.134 40.3329 164.59 40.6502C164.046 40.9675 163.621 41.4209 163.315 42.0102C163.009 42.5995 162.856 43.2795 162.856 44.0502C162.856 44.8435 163.009 45.5349 163.315 46.1242C163.632 46.7135 164.068 47.1669 164.624 47.4842C165.179 47.8015 165.825 47.9602 166.562 47.9602C167.468 47.9602 168.211 47.7222 168.789 47.2462C169.367 46.7589 169.746 46.0845 169.928 45.2232H165.848V43.4042H172.274V45.4782C172.115 46.3055 171.775 47.0705 171.254 47.7732C170.732 48.4759 170.058 49.0425 169.231 49.4732C168.415 49.8925 167.497 50.1022 166.477 50.1022C165.332 50.1022 164.295 49.8472 163.366 49.3372C162.448 48.8159 161.722 48.0962 161.19 47.1782C160.668 46.2602 160.408 45.2175 160.408 44.0502C160.408 42.8829 160.668 41.8402 161.19 40.9222C161.722 39.9929 162.448 39.2732 163.366 38.7632C164.295 38.2419 165.326 37.9812 166.46 37.9812C167.797 37.9812 168.959 38.3099 169.945 38.9672C170.931 39.6132 171.611 40.5255 171.985 41.7042H169.248Z" fill="black"/>
<path d="M183.81 38.1342L179.798 45.8692V50.0002H177.418V45.8692L173.389 38.1342H176.075L178.625 43.5572L181.158 38.1342H183.81Z" fill="black"/>
<path d="M5.79395 30.745C5.36681 30.3442 5.37415 29.6637 5.80983 29.2721L23.9491 12.9695C24.5928 12.391 25.6175 12.8478 25.6175 13.7133L25.6175 47.0392C25.6175 47.9149 24.5717 48.3677 23.9332 47.7684L5.79395 30.745Z" fill="#5D59EA"/>
<path d="M41.0332 17.5785C41.5602 17.2096 41.6068 16.4463 41.1287 16.0159L32.7801 8.50218C32.1365 7.92301 31.1111 8.37971 31.1111 9.24548L31.1111 22.6033C31.1111 23.4123 32.0218 23.8864 32.6846 23.4225L41.0332 17.5785Z" fill="#5D59EA"/>
<path d="M40.9968 45.0381C41.5301 44.6381 41.5301 43.8381 40.9968 43.4381L31.9809 36.6762C31.3217 36.1818 30.3809 36.6521 30.3809 37.4762L30.3809 51C30.3809 51.824 31.3217 52.2944 31.9809 51.8L40.9968 45.0381Z" fill="#5D59EA"/>
<path d="M53.1889 29.3225L46.9047 23.5217V37.0775L53.2177 30.7644C53.6193 30.3628 53.6062 29.7078 53.1889 29.3225ZM44.9047 37.5485V23.1809L35.9866 29.551C35.4282 29.9498 35.4282 30.7796 35.9866 31.1784L44.9047 37.5485Z" fill="#5D59EA" stroke="#5D59EA" stroke-width="2"/>
</svg>