<svg xmlns="http://www.w3.org/2000/svg" width="40" height="40" viewBox="0 0 40 40" fill="none">
<circle cx="20" cy="20" r="20" fill="#5956E9"/>
<path d="M23.1956 20.5H25.9642C26.1908 22.5359 27.9204 24.125 30.0156 24.125C32.264 24.125 34.0938 22.2953 34.0938 20.0469C34.0938 17.7985 32.264 15.9688 30.0156 15.9688C27.9204 15.9688 26.1908 17.5579 25.9642 19.5938H23.1956C23.1018 18.5593 22.6922 17.6154 22.0624 16.8596L25.0113 13.9107C25.4427 14.067 25.9058 14.1562 26.3906 14.1562C28.639 14.1562 30.4688 12.3265 30.4688 10.0781C30.4688 7.82972 28.639 6 26.3906 6C24.1422 6 22.3125 7.82972 22.3125 10.0781C22.3125 11.5014 23.047 12.7552 24.1554 13.4852L21.4217 16.2189C20.5566 15.498 19.4456 15.0625 18.2344 15.0625C17.5647 15.0625 16.9267 15.1971 16.343 15.4377C15.7318 14.1621 14.6461 13.1888 13.351 12.6981C14.3765 12.0569 15.0625 10.9209 15.0625 9.625C15.0625 7.62627 13.4362 6 11.4375 6C9.43877 6 7.8125 7.62627 7.8125 9.625C7.8125 10.9209 8.49853 12.0569 9.52395 12.6981C7.46858 13.4747 6 15.4572 6 17.7812V22.3125C6 23.3121 6.81291 24.125 7.8125 24.125H8.26562V32.2812C8.26562 33.2808 9.07853 34.0938 10.0781 34.0938C10.6219 34.0938 11.1049 33.8482 11.4375 33.4675C11.7701 33.8482 12.2531 34.0938 12.7969 34.0938C13.7965 34.0938 14.6094 33.2808 14.6094 32.2812V23.4571C15.5192 24.4236 16.8057 25.0312 18.2344 25.0312C19.4456 25.0312 20.5566 24.5958 21.4217 23.8749L24.1554 26.6086C23.047 27.3386 22.3125 28.5924 22.3125 30.0156C22.3125 32.264 24.1422 34.0938 26.3906 34.0938C28.639 34.0938 30.4688 32.264 30.4688 30.0156C30.4688 27.7672 28.639 25.9375 26.3906 25.9375C25.9058 25.9375 25.4427 26.0268 25.0113 26.1826L22.0624 23.2337C22.6927 22.4783 23.1018 21.5345 23.1956 20.5V20.5ZM24.4327 12.5685C24.8337 11.8734 25.5714 11.4375 26.3906 11.4375C27.2099 11.4375 27.9476 11.8734 28.3486 12.5685C27.8089 12.994 27.1297 13.25 26.3906 13.25C25.6516 13.25 24.9723 12.994 24.4327 12.5685V12.5685ZM25.4844 9.625C25.4844 9.1252 25.8908 8.71875 26.3906 8.71875C26.8904 8.71875 27.2969 9.1252 27.2969 9.625C27.2969 10.1248 26.8904 10.5312 26.3906 10.5312C25.8908 10.5312 25.4844 10.1248 25.4844 9.625ZM26.3906 6.90625C28.1397 6.90625 29.5625 8.32906 29.5625 10.0781C29.5625 10.7542 29.3482 11.38 28.9866 11.8952C28.6658 11.4325 28.2367 11.0641 27.7346 10.8299C28.0223 10.509 28.2031 10.0895 28.2031 9.625C28.2031 8.62541 27.3902 7.8125 26.3906 7.8125C25.391 7.8125 24.5781 8.62541 24.5781 9.625C24.5781 10.0895 24.7589 10.509 25.0467 10.8299C24.5446 11.0641 24.1155 11.4325 23.7947 11.8952C23.4331 11.38 23.2188 10.7542 23.2188 10.0781C23.2188 8.32906 24.6416 6.90625 26.3906 6.90625ZM24.4327 32.506C24.8337 31.8109 25.5714 31.375 26.3906 31.375C27.2099 31.375 27.9476 31.8109 28.3486 32.506C27.8089 32.9315 27.1297 33.1875 26.3906 33.1875C25.6516 33.1875 24.9723 32.9315 24.4327 32.506ZM25.4844 29.5625C25.4844 29.0627 25.8908 28.6562 26.3906 28.6562C26.8904 28.6562 27.2969 29.0627 27.2969 29.5625C27.2969 30.0623 26.8904 30.4688 26.3906 30.4688C25.8908 30.4688 25.4844 30.0623 25.4844 29.5625ZM29.5625 30.0156C29.5625 30.6917 29.3482 31.3175 28.9866 31.8327C28.6658 31.37 28.2367 31.0016 27.7346 30.7674C28.0223 30.4465 28.2031 30.027 28.2031 29.5625C28.2031 28.5629 27.3902 27.75 26.3906 27.75C25.391 27.75 24.5781 28.5629 24.5781 29.5625C24.5781 30.027 24.7589 30.4465 25.0467 30.7674C24.5446 31.0016 24.1155 31.37 23.7947 31.8327C23.4331 31.3175 23.2188 30.6917 23.2188 30.0156C23.2188 28.2666 24.6416 26.8438 26.3906 26.8438C28.1397 26.8438 29.5625 28.2666 29.5625 30.0156ZM28.0577 22.5372C28.4587 21.8422 29.1964 21.4062 30.0156 21.4062C30.8349 21.4062 31.5726 21.8422 31.9736 22.5372C31.4339 22.9627 30.7547 23.2188 30.0156 23.2188C29.2766 23.2188 28.5973 22.9627 28.0577 22.5372ZM29.1094 19.5938C29.1094 19.094 29.5158 18.6875 30.0156 18.6875C30.5154 18.6875 30.9219 19.094 30.9219 19.5938C30.9219 20.0935 30.5154 20.5 30.0156 20.5C29.5158 20.5 29.1094 20.0935 29.1094 19.5938ZM30.0156 16.875C31.7647 16.875 33.1875 18.2978 33.1875 20.0469C33.1875 20.7229 32.9732 21.3487 32.6116 21.8639C32.2908 21.4013 31.8617 21.0329 31.3596 20.7986C31.6473 20.4778 31.8281 20.0582 31.8281 19.5938C31.8281 18.5942 31.0152 17.7812 30.0156 17.7812C29.016 17.7812 28.2031 18.5942 28.2031 19.5938C28.2031 20.0582 28.3839 20.4778 28.6717 20.7986C28.1696 21.0329 27.7405 21.4013 27.4197 21.8639C27.0581 21.3487 26.8438 20.7229 26.8438 20.0469C26.8438 18.2978 28.2666 16.875 30.0156 16.875ZM9.89098 13.5278C10.0645 13.4643 10.2422 13.4104 10.4248 13.3683L10.3015 15.0947C10.1243 14.5831 9.98659 14.0588 9.89098 13.5278ZM11.3414 13.255C11.3736 13.2541 11.4049 13.25 11.4375 13.25C11.4697 13.25 11.5014 13.2532 11.5336 13.2536L11.7896 16.8397C11.6777 17.0359 11.5617 17.2293 11.437 17.4174C11.3129 17.228 11.1969 17.0331 11.085 16.836L11.3414 13.255ZM12.5753 15.1146L12.4502 13.3669C12.6365 13.41 12.8182 13.467 12.9963 13.5328C12.8979 14.0693 12.7565 14.5985 12.5753 15.1146V15.1146ZM8.71875 9.625C8.71875 8.12561 9.93811 6.90625 11.4375 6.90625C12.9369 6.90625 14.1562 8.12561 14.1562 9.625C14.1562 11.1244 12.9369 12.3438 11.4375 12.3438C9.93811 12.3438 8.71875 11.1244 8.71875 9.625ZM13.7031 32.2812C13.7031 32.781 13.2967 33.1875 12.7969 33.1875C12.2971 33.1875 11.8906 32.781 11.8906 32.2812V24.125V23.782C11.8906 23.54 11.9849 23.3121 12.1562 23.1408L12.6641 22.6329L12.0234 21.9921L11.5154 22.5001C11.1729 22.8422 10.9844 23.2976 10.9844 23.782V24.125V32.2812C10.9844 32.781 10.5779 33.1875 10.0781 33.1875C9.57833 33.1875 9.17188 32.781 9.17188 32.2812V15.5156H8.26562V23.2188H7.8125C7.3127 23.2188 6.90625 22.8123 6.90625 22.3125V17.7812C6.90625 16.1618 7.76311 14.7421 9.04409 13.9406C9.33681 15.3761 9.91047 16.7608 10.722 17.9784L11.4375 19.0514L12.1707 17.9521C12.9754 16.7445 13.5468 15.3715 13.8418 13.9483C14.5686 14.4046 15.1667 15.0616 15.5415 15.8595C15.1993 16.0802 14.8876 16.3417 14.6098 16.6367V15.5156H13.7036V17.9824C13.4154 18.6123 13.2505 19.3101 13.2505 20.0469C13.2505 20.7837 13.4154 21.4815 13.7036 22.1113V32.2812H13.7031ZM18.2344 24.125C15.986 24.125 14.1562 22.2953 14.1562 20.0469C14.1562 17.7985 15.986 15.9688 18.2344 15.9688C20.4828 15.9688 22.3125 17.7985 22.3125 20.0469C22.3125 22.2953 20.4828 24.125 18.2344 24.125V24.125Z" fill="white"/>
<path d="M18.6875 18.6875C18.9372 18.6875 19.1406 18.891 19.1406 19.1406H20.0469C20.0469 18.3912 19.437 17.7812 18.6875 17.7812V16.875H17.7812V17.7812H16.4219V19.1406C16.4219 19.8901 17.0318 20.5 17.7812 20.5H18.6875C18.9372 20.5 19.1406 20.7035 19.1406 20.9531V21.4062H17.7812C17.5316 21.4062 17.3281 21.2028 17.3281 20.9531H16.4219C16.4219 21.7026 17.0318 22.3125 17.7812 22.3125V23.2188H18.6875V22.3125H20.0469V20.9531C20.0469 20.2037 19.437 19.5938 18.6875 19.5938H17.7812C17.5316 19.5938 17.3281 19.3903 17.3281 19.1406V18.6875H18.6875Z" fill="white"/>
</svg>