<svg xmlns="http://www.w3.org/2000/svg" width="40" height="40" viewBox="0 0 40 40" fill="none">
<circle cx="20" cy="20" r="20" fill="#5956E9"/>
<path d="M6.25665 26.1696C6.3372 26.0407 6.46609 26.0327 6.64331 26.1455C10.6321 28.4712 15.1728 29.6815 19.79 29.6496C22.9895 29.6418 26.16 29.0438 29.1425 27.8855C29.223 27.8532 29.3398 27.8049 29.4929 27.7405C29.646 27.676 29.7547 27.6277 29.8191 27.5955C29.9146 27.5434 30.0262 27.5294 30.1316 27.5563C30.237 27.5832 30.3282 27.649 30.3871 27.7405C30.524 27.9338 30.4797 28.111 30.2541 28.2721C29.9641 28.4816 29.5936 28.7232 29.1425 28.9971C27.6919 29.8457 26.1302 30.4882 24.5025 30.9063C22.8712 31.3471 21.1897 31.5746 19.5 31.583C17.0618 31.5969 14.643 31.15 12.3708 30.2659C10.157 29.4036 8.11815 28.1467 6.35331 26.5563C6.31279 26.5292 6.27878 26.4935 6.25371 26.4517C6.22863 26.4099 6.21313 26.3631 6.20831 26.3146C6.20952 26.2625 6.22636 26.212 6.25665 26.1696V26.1696ZM13.5308 19.2821C13.5018 18.2693 13.789 17.2726 14.3525 16.4305C14.9136 15.6302 15.6941 15.0092 16.6 14.6421C17.63 14.2309 18.7114 13.9626 19.8141 13.8446C20.2491 13.7963 20.958 13.7318 21.9408 13.6513V13.2405C22.0019 12.5303 21.8856 11.8162 21.6025 11.1621C21.4196 10.9162 21.1774 10.7208 20.8985 10.594C20.6195 10.4672 20.313 10.4132 20.0075 10.4371H19.8141C19.3163 10.4729 18.8387 10.6488 18.4366 10.9446C18.046 11.2408 17.7791 11.6713 17.6875 12.153C17.6779 12.2854 17.6257 12.4112 17.5385 12.5115C17.4513 12.6117 17.334 12.6809 17.2041 12.7088L14.425 12.3705C14.1511 12.306 14.0141 12.161 14.0141 11.9355C14.0154 11.8783 14.0235 11.8215 14.0383 11.7663C14.1319 11.1227 14.3599 10.506 14.7076 9.95642C15.0553 9.4068 15.5148 8.93655 16.0562 8.57628C17.1849 7.86546 18.4812 7.46531 19.8141 7.41628H20.4183C21.982 7.3223 23.522 7.83275 24.72 8.84212C24.8817 9.00396 25.0312 9.17764 25.1671 9.3617C25.2862 9.51978 25.3951 9.68525 25.4933 9.85712C25.5931 10.0561 25.6662 10.2674 25.7108 10.4855C25.7753 10.7593 25.8236 10.9486 25.8558 11.0534C25.9022 11.276 25.9265 11.5026 25.9283 11.73C25.9444 12.0764 25.9525 12.2818 25.9525 12.3463V18.1946C25.9479 18.5847 26.0091 18.9728 26.1337 19.3425C26.2153 19.6073 26.3332 19.8594 26.4841 20.0917C26.5969 20.2448 26.7822 20.4905 27.04 20.8288C27.1249 20.9408 27.1753 21.0752 27.185 21.2155C27.1826 21.2833 27.1638 21.3496 27.1301 21.4085C27.0965 21.4675 27.0489 21.5173 26.9916 21.5538C25.6544 22.7138 24.9294 23.3421 24.8166 23.4388C24.7156 23.5106 24.5967 23.5531 24.473 23.5616C24.3494 23.5702 24.2258 23.5444 24.1158 23.4871C23.8903 23.2938 23.6929 23.1085 23.5237 22.9313C23.3546 22.7541 23.2337 22.6252 23.1612 22.5446C23.036 22.394 22.919 22.2367 22.8108 22.0734C22.6497 21.8398 22.5369 21.6827 22.4725 21.6021C21.7733 22.4484 20.8531 23.0842 19.8141 23.4388C19.1522 23.6142 18.4688 23.6956 17.7841 23.6805C17.224 23.701 16.6653 23.6101 16.1405 23.413C15.6157 23.216 15.1353 22.9167 14.7271 22.5325C14.3129 22.1035 13.9926 21.5929 13.7866 21.0333C13.5806 20.4737 13.4935 19.8773 13.5308 19.2821V19.2821ZM17.6875 18.7988C17.6601 19.3423 17.8272 19.8777 18.1587 20.3092C18.3121 20.4953 18.5064 20.6434 18.7265 20.7419C18.9466 20.8405 19.1865 20.8867 19.4275 20.8771C19.4965 20.8748 19.5652 20.8667 19.6329 20.853C19.6926 20.8404 19.7532 20.8323 19.8141 20.8288C20.1543 20.7367 20.4706 20.5725 20.7416 20.3473C21.0127 20.1221 21.2321 19.8413 21.385 19.5238C21.5652 19.2103 21.6994 18.8725 21.7837 18.5209C21.8606 18.2323 21.9092 17.9368 21.9287 17.6388C21.9368 17.4132 21.9408 17.0427 21.9408 16.5271V15.923C21.2267 15.9009 20.5126 15.9658 19.8141 16.1163C19.1941 16.2283 18.6361 16.5625 18.2447 17.0563C17.8532 17.55 17.6551 18.1695 17.6875 18.7988V18.7988ZM27.8375 26.5805C27.8751 26.5087 27.9241 26.4434 27.9825 26.3871C28.3347 26.1372 28.727 25.9492 29.1425 25.8313C29.7264 25.6743 30.3265 25.5851 30.9308 25.5655C31.0842 25.5489 31.2392 25.5571 31.39 25.5896C32.115 25.6541 32.55 25.7749 32.695 25.9521C32.7682 26.0849 32.8018 26.2359 32.7916 26.3871V26.5563C32.7644 27.2437 32.6087 27.9199 32.3325 28.55C32.0636 29.262 31.6237 29.8969 31.0516 30.3988C30.992 30.4544 30.9154 30.4884 30.8341 30.4955C30.8005 30.4951 30.7674 30.4868 30.7375 30.4713C30.6408 30.423 30.6166 30.3343 30.665 30.2055C31.1237 29.2873 31.4259 28.299 31.5591 27.2813C31.5704 27.1453 31.5364 27.0093 31.4625 26.8946C31.3014 26.7013 30.8503 26.6046 30.1091 26.6046C29.8353 26.6046 29.513 26.6207 29.1425 26.653C28.7397 26.7013 28.3691 26.7496 28.0308 26.798C27.9626 26.8061 27.8938 26.7889 27.8375 26.7496C27.8229 26.7387 27.8126 26.7232 27.8082 26.7056C27.8038 26.688 27.8056 26.6694 27.8133 26.653C27.8162 26.6274 27.8245 26.6027 27.8375 26.5805Z" fill="white"/>
</svg>