<svg xmlns="http://www.w3.org/2000/svg" width="40" height="40" viewBox="0 0 40 40" fill="none">
<circle cx="20" cy="20" r="20" fill="#5956E9"/>
<path d="M19.601 10.9347H18.9705V10.3044C18.9705 6.1829 21.1534 4 25.2749 4H25.9052V4.63051C25.9052 8.75181 23.7223 10.9347 19.601 10.9347V10.9347ZM24.6206 5.28457C21.8783 5.47366 20.4441 6.90783 20.247 9.65821C23.0368 9.46913 24.4394 8.06635 24.6206 5.28457Z" fill="white"/>
<path d="M24.6444 33.0003C23.6288 32.9996 22.6287 32.7535 21.7287 32.2832C20.4019 31.5728 18.8077 31.5728 17.4811 32.2832C16.581 32.7535 15.5808 32.9996 14.5652 33.0003C10.3257 33.0003 7 27.1844 7 19.7612C7 15.2455 10.3966 11.5654 14.5652 11.5654C15.3458 11.5654 16.1211 11.6959 16.8585 11.9517L19.1991 12.7632C19.4671 12.8558 19.7585 12.8558 20.0265 12.7632L22.359 11.9517C23.0941 11.697 23.8664 11.5666 24.6444 11.5654C26.9217 11.5654 29.0494 12.6609 30.4995 14.5679L31.0511 15.3007L30.1685 15.5528C27.9022 16.206 26.3928 18.3443 26.5366 20.6985C26.6802 23.0527 28.4386 24.9916 30.7674 25.364L31.4847 25.4822L31.264 26.1757C29.9558 30.3838 27.4105 33.0003 24.6444 33.0003V33.0003ZM19.601 30.4785C20.5464 30.4859 21.4764 30.7211 22.3117 31.1642C23.0306 31.5437 23.8315 31.7411 24.6444 31.7393C26.7091 31.7393 28.6713 29.7298 29.8533 26.4516C27.1387 25.69 25.2657 23.2109 25.2749 20.3914C25.2858 17.94 26.7098 15.7149 28.9312 14.6783C27.7729 13.4962 26.252 12.8262 24.6444 12.8262C24.006 12.8265 23.3721 12.9329 22.7688 13.1416L20.4284 13.9531C19.8947 14.1364 19.3149 14.1364 18.7814 13.9531L16.433 13.1416C15.8297 12.9329 15.1957 12.8262 14.5574 12.8262C11.082 12.8262 8.25317 15.9391 8.25317 19.7612C8.25317 26.2547 11.1372 31.7393 14.5574 31.7393C15.3703 31.7413 16.1714 31.5439 16.8901 31.1642C17.7254 30.7211 18.6553 30.4859 19.601 30.4785V30.4785Z" fill="white"/>
</svg>