<svg xmlns="http://www.w3.org/2000/svg" width="40" height="40" viewBox="0 0 40 40" fill="none">
<circle cx="20" cy="20" r="20" fill="#5956E9"/>
<path d="M30.4823 33H10.5177C9.12917 33 8 31.8708 8 30.4823V10.5177C8 9.12917 9.12917 8 10.5177 8H30.4823C31.8708 8 33 9.12917 33 10.5177V30.4833C33 31.8708 31.8708 33 30.4823 33ZM10.5177 9.04167C9.70417 9.04167 9.04167 9.70312 9.04167 10.5177V30.4833C9.04167 31.2969 9.70417 31.9583 10.5177 31.9583H30.4823C31.2958 31.9583 31.9583 31.2969 31.9583 30.4823V10.5177C31.9583 9.70312 31.2958 9.04167 30.4823 9.04167H10.5177Z" fill="white"/>
<path d="M21.4896 28.5351H14.7896C14.5021 28.5351 14.2687 28.3018 14.2687 28.0143V13.431C14.2687 13.1435 14.5021 12.9102 14.7896 12.9102H21.876C23.3031 12.9102 24.4677 13.2477 25.3375 13.9133C26.2604 14.6164 26.7281 15.6706 26.7281 17.0456C26.7281 17.8862 26.5156 18.6206 26.0958 19.2268C25.8823 19.5362 25.6208 19.8102 25.3146 20.0466C25.8354 20.3122 26.2604 20.682 26.5854 21.1529C27.1021 21.8997 27.3635 22.8352 27.3635 23.9352C27.3635 24.5008 27.2646 25.0518 27.0708 25.5758C27.0708 25.6372 27.0604 25.6976 27.0375 25.7529C26.7979 26.3362 26.4114 26.8529 25.9219 27.2476C25.4198 27.6539 24.7979 27.9726 24.075 28.1945C23.3437 28.4206 22.475 28.5351 21.4896 28.5351ZM15.3104 27.4935H21.4906C22.3708 27.4935 23.1364 27.3945 23.7677 27.1997C24.3635 27.0174 24.8677 26.7612 25.2667 26.4383C25.5802 26.1851 25.8354 25.8643 26.0104 25.5029C26.0125 25.4445 26.026 25.3862 26.0479 25.3299C26.2302 24.8883 26.3219 24.4195 26.3219 23.9362C26.3219 23.0518 26.1229 22.3154 25.7292 21.7456C25.3583 21.2081 24.7833 20.8549 24.0187 20.6935C23.7781 20.6424 23.6062 20.4299 23.6062 20.1841C23.6062 19.9747 23.7312 19.7383 23.925 19.657C24.4969 19.4154 24.9396 19.0716 25.2406 18.6372C25.5375 18.207 25.6885 17.6727 25.6885 17.0477C25.6885 16.0008 25.3667 15.2466 24.7073 14.7435C24.0239 14.2195 23.0719 13.9539 21.8781 13.9539H15.3104V27.4935Z" fill="white"/>
<path d="M21.874 26.4535H17.3594C17.0719 26.4535 16.8386 26.2201 16.8386 25.9326V21.3826C16.8386 21.0951 17.0719 20.8618 17.3594 20.8618H21.8604C22.7292 20.8618 23.4302 21.0826 23.9448 21.518C23.9719 21.5347 23.9979 21.5535 24.0219 21.5753C24.5573 22.0535 24.8323 22.7399 24.8417 23.6149C24.8417 24.5014 24.5688 25.2035 24.0313 25.7076C23.5104 26.2024 22.7834 26.4535 21.874 26.4535ZM17.8802 25.4118H21.874C22.5073 25.4118 22.9938 25.2566 23.3177 24.9503C23.6427 24.6451 23.8011 24.2107 23.8011 23.6212C23.7959 23.0785 23.6563 22.6764 23.3782 22.3993C23.3552 22.3847 23.3323 22.368 23.3136 22.3493C22.9865 22.0503 22.5104 21.9045 21.8615 21.9045H17.8802V25.4118ZM21.5094 20.0607H17.3427C17.0552 20.0607 16.8219 19.8274 16.8219 19.5399V15.516C16.8219 15.2285 17.0552 14.9951 17.3427 14.9951H21.5094C22.3177 14.9951 22.9636 15.1857 23.4292 15.5618C23.924 15.9607 24.175 16.6201 24.175 17.5191C24.175 18.3305 23.9063 18.9701 23.3761 19.4201C23.3594 19.4347 23.3427 19.4472 23.325 19.4587C22.8375 19.8524 22.2115 20.0607 21.5094 20.0607ZM17.8636 19.0191H21.5094C21.9907 19.0191 22.3907 18.8868 22.6969 18.6264C22.7104 18.6149 22.7229 18.6045 22.7365 18.5962C23.0032 18.3503 23.1334 17.9982 23.1334 17.5191C23.1334 16.9503 23.0125 16.5639 22.774 16.3722C22.499 16.1493 22.0729 16.0368 21.5094 16.0368H17.8636V19.0191Z" fill="white"/>
</svg>