<svg xmlns="http://www.w3.org/2000/svg" width="40" height="40" viewBox="0 0 40 40" fill="none">
<circle cx="20" cy="20" r="20" fill="#5956E9"/>
<path d="M14.8532 17.2209C14.643 17.3252 14.5572 17.5802 14.6615 17.7903C14.8524 18.175 14.9492 18.5895 14.9492 19.0225C14.9492 19.5716 14.7882 20.0836 14.512 20.5149L13.6657 19.6683C13.5308 19.5341 13.3448 19.4655 13.1551 19.4805C12.9656 19.4953 12.7925 19.5918 12.68 19.7454L12.1093 20.5261L11.1726 19.5893C11.038 19.4546 10.8517 19.3855 10.6619 19.4005C10.4719 19.4152 10.2986 19.5118 10.1861 19.6657L9.71591 20.3092C9.51359 19.9243 9.39844 19.4867 9.39844 19.0225C9.39844 17.4921 10.6435 16.2471 12.1738 16.2471C12.6268 16.2471 13.0761 16.3585 13.4731 16.5693C13.6802 16.6793 13.9374 16.6006 14.0474 16.3934C14.1575 16.1861 14.0787 15.929 13.8715 15.8189C13.3522 15.5432 12.7652 15.3975 12.1738 15.3975C10.175 15.3975 8.54883 17.0237 8.54883 19.0225C8.54883 21.0157 10.2018 22.6475 12.1738 22.6475C14.1292 22.6475 15.7988 20.9812 15.7988 19.0225C15.7988 18.4574 15.6722 17.9157 15.4225 17.4126C15.3182 17.2024 15.0633 17.1164 14.8532 17.2209V17.2209ZM12.1738 21.7979C11.427 21.7979 10.7486 21.5009 10.2493 21.0194L10.7356 20.3538L12.1795 21.7977C12.1776 21.7977 12.1757 21.7979 12.1738 21.7979ZM13.1883 21.605L12.7173 21.134L13.2293 20.4335L13.9493 21.1538C13.7232 21.3424 13.4666 21.4953 13.1883 21.605ZM32.876 12.7692H30.802L16.8593 10.2859C16.6284 10.2448 16.4077 10.3986 16.3666 10.6296C16.3255 10.8606 16.4794 11.0812 16.7103 11.1223L25.9567 12.7692H8.12402C8.03504 12.7692 7.94759 12.7753 7.86144 12.786L8.19726 10.901C8.32068 10.2092 8.98405 9.7467 9.67569 9.86939L14.7533 10.7738C14.9844 10.8149 15.2048 10.6611 15.246 10.4301C15.2871 10.1991 15.1332 9.97848 14.9023 9.93735L9.82449 9.03292C8.67174 8.82827 7.56651 9.59915 7.36085 10.752L6.93661 13.1329C6.3719 13.5151 6 14.1616 6 14.8932V27.853C6 29.0242 6.95281 29.977 8.12402 29.977H32.876C34.0472 29.977 35 29.0242 35 27.853V14.8932C35 13.722 34.0472 12.7692 32.876 12.7692V12.7692ZM34.1504 27.853C34.1504 28.5556 33.5787 29.1274 32.876 29.1274H8.12402C7.42128 29.1274 6.84961 28.5556 6.84961 27.853V14.8932C6.84961 14.1906 7.42128 13.6188 8.12402 13.6188H32.876C33.5787 13.6188 34.1504 14.1906 34.1504 14.8932V27.853ZM13.6748 25.1963H10.6729C10.4382 25.1963 10.248 25.3865 10.248 25.6211C10.248 25.8558 10.4382 26.0459 10.6729 26.0459H13.6748C13.9094 26.0459 14.0996 25.8558 14.0996 25.6211C14.0996 25.3865 13.9094 25.1963 13.6748 25.1963ZM15.374 23.4971H8.97363C8.73903 23.4971 8.54883 23.6873 8.54883 23.9219C8.54883 24.1566 8.73903 24.3467 8.97363 24.3467H15.374C15.6086 24.3467 15.7988 24.1566 15.7988 23.9219C15.7988 23.6873 15.6086 23.4971 15.374 23.4971ZM32.0264 26.5785H22.9183C22.6837 26.5785 22.4935 26.7687 22.4935 27.0033C22.4935 27.238 22.6837 27.4281 22.9183 27.4281H32.0264C32.261 27.4281 32.4512 27.238 32.4512 27.0033C32.4512 26.7687 32.261 26.5785 32.0264 26.5785ZM11.6026 18.8235C11.6026 19.0581 11.7928 19.2483 12.0274 19.2483C12.262 19.2483 12.4522 19.0581 12.4522 18.8235C12.4522 18.5889 12.262 18.3987 12.0274 18.3987C11.7928 18.3987 11.6026 18.5889 11.6026 18.8235ZM32.0264 17.0967H28.016C27.7814 17.0967 27.5912 17.2869 27.5912 17.5215C27.5912 17.7562 27.7814 17.9463 28.016 17.9463H32.0264C32.261 17.9463 32.4512 17.7562 32.4512 17.5215C32.4512 17.2869 32.261 17.0967 32.0264 17.0967ZM32.0264 23.1801H22.9183C22.6837 23.1801 22.4935 23.3702 22.4935 23.6049C22.4935 23.8396 22.6837 24.0297 22.9183 24.0297H32.0264C32.261 24.0297 32.4512 23.8396 32.4512 23.6049C32.4512 23.3702 32.261 23.1801 32.0264 23.1801ZM32.0264 15.3975H22.9183C22.6837 15.3975 22.4935 15.5877 22.4935 15.8223C22.4935 16.057 22.6837 16.2471 22.9183 16.2471H32.0264C32.261 16.2471 32.4512 16.057 32.4512 15.8223C32.4512 15.5877 32.261 15.3975 32.0264 15.3975ZM32.0264 24.8793H22.9183C22.6837 24.8793 22.4935 25.0695 22.4935 25.3041C22.4935 25.5388 22.6837 25.7289 22.9183 25.7289H32.0264C32.261 25.7289 32.4512 25.5388 32.4512 25.3041C32.4512 25.0695 32.261 24.8793 32.0264 24.8793Z" fill="white"/>
</svg>