<svg xmlns="http://www.w3.org/2000/svg" width="40" height="40" viewBox="0 0 40 40" fill="none">
<circle cx="20" cy="20" r="20" fill="#5956E9"/>
<path d="M15.4799 34.0002C15.4424 34.0002 15.3856 33.9966 15.3482 33.9893C11.8343 33.3139 9.01286 30.7426 7.98457 27.2795C7.23178 23.6811 8.11145 20.0343 10.3879 17.2261C11.3945 15.8752 12.5303 14.5992 13.7532 13.4525C14.1604 13.061 14.6014 12.6888 15.0449 12.3167C15.8267 11.6581 16.5662 11.0346 17.1377 10.2927C17.9473 9.24268 19.1834 7.27672 18.3738 5.91372C18.2276 5.66722 18.2747 5.35185 18.4862 5.15852C18.6977 4.96518 19.0154 4.94827 19.2487 5.11622C21.3886 6.67377 22.5752 9.18952 22.4254 11.8454C22.3504 12.4967 22.1764 13.0997 22.0085 13.6833C21.6363 14.9726 21.3173 16.0855 22.0749 17.0666C22.2526 17.2938 22.5136 17.4606 22.8048 17.5331C23.1419 17.614 23.5032 17.5621 23.8101 17.376C24.1013 17.1983 24.3128 16.9216 24.4082 16.593C24.4082 16.5736 24.4094 16.5555 24.4107 16.5434C24.4119 16.4721 24.3913 16.3646 24.349 16.2619C24.2729 16.0746 24.2934 15.8619 24.4058 15.694C24.5182 15.526 24.7067 15.4245 24.9085 15.4245H25.0583C25.1441 15.4245 25.2299 15.4426 25.3072 15.4777C28.8525 17.0811 31.1967 20.6457 31.2812 24.5607C31.1967 29.4678 26.779 33.0046 22.4604 33.9748C22.1511 34.0461 21.8309 33.8564 21.7451 33.5447C21.6605 33.2341 21.8345 32.9103 22.1414 32.8112C23.9648 32.2203 25.2939 30.6592 25.6129 28.7367C25.7277 26.9798 24.9556 25.2241 23.5394 24.0979C22.1281 22.9923 20.6346 21.9592 19.1024 21.0312C18.6783 20.74 17.702 19.9944 17.2392 19.0157C17.1474 19.2138 17.0724 19.4217 17.0193 19.6368C16.8525 20.8656 17.3637 22.1791 18.3642 23.002C18.7508 23.3439 19.0179 23.7705 19.1544 24.2502C19.5326 25.6144 18.7412 27.0342 17.389 27.4196C16.3861 27.6275 15.4013 27.242 14.8334 26.4397C14.6377 26.1231 14.5059 25.7836 14.4383 25.4356C13.5562 26.3962 13.0161 27.6541 12.9472 28.9881C13.0849 30.6302 14.1459 32.1346 15.7131 32.833C15.7819 32.8632 15.8424 32.9055 15.8943 32.9574C16.0671 33.1302 16.1239 33.3948 16.0309 33.6208C15.939 33.848 15.7239 34.0002 15.4799 34.0002ZM19.8202 7.32022C19.7042 8.4331 19.1242 9.69581 18.0971 11.0286C17.4446 11.8744 16.6205 12.568 15.823 13.2398C15.3989 13.5963 14.9772 13.9516 14.5881 14.3261C14.5857 14.3273 14.5845 14.3298 14.5821 14.331C13.4112 15.4293 12.3225 16.6534 11.3425 17.9681C9.27991 20.5116 8.48845 23.791 9.15424 26.9846C9.72457 28.9023 10.9486 30.5166 12.5666 31.5811C12.1062 30.8114 11.8174 29.9342 11.7425 29.005C11.8549 26.7418 13.0064 24.7263 14.8225 23.5348C15.0449 23.3911 15.3324 23.4043 15.5379 23.5735C15.7421 23.7415 15.8146 24.023 15.7143 24.2671C15.5161 24.7589 15.5632 25.3208 15.8412 25.7727C16.1106 26.1497 16.6217 26.3454 17.1014 26.2476C17.7757 26.0542 18.1926 25.3002 17.992 24.5776C17.9195 24.3239 17.7769 24.0955 17.5799 23.9215C16.2737 22.8485 15.5983 21.1133 15.8351 19.4084C16.0792 18.4188 16.5782 17.5983 17.2899 16.9712C17.5002 16.7875 17.8035 16.7682 18.0319 16.9265C18.259 17.0823 18.3533 17.3748 18.2566 17.6346C17.963 18.4284 18.8825 19.4144 19.7574 20.0186C21.3004 20.9526 22.8362 22.0123 24.2886 23.1506C26.0189 24.5269 26.9602 26.6668 26.8116 28.8769C26.6727 29.7239 26.3827 30.5093 25.967 31.2041C28.2689 29.7106 30.0234 27.3918 30.0717 24.5643C30.0028 21.4178 28.258 18.5118 25.5574 16.9627C25.3737 17.5681 24.9798 18.0768 24.4372 18.4079C23.856 18.7607 23.1721 18.8658 22.5124 18.7051C21.9614 18.5662 21.4684 18.2484 21.1228 17.8086C19.9869 16.338 20.4437 14.7491 20.8473 13.3474C21.0092 12.7855 21.1614 12.2551 21.2231 11.7391C21.3137 10.1284 20.8038 8.56118 19.8202 7.32022ZM14.1688 13.8899H14.1809H14.1688Z" fill="white"/>
</svg>