<svg xmlns="http://www.w3.org/2000/svg" width="40" height="40" viewBox="0 0 40 40" fill="none">
<circle cx="20" cy="20" r="20" fill="#5956E9"/>
<path d="M31.2449 10.035H22.9974C23.4145 9.03334 23.0332 7.85024 22.069 7.2935C21.0215 6.68867 19.6772 7.04882 19.0724 8.09643L17.9532 10.035H10.2129C8.99272 10.035 8 11.0277 8 12.2479V26.0381C8 27.2582 8.99272 28.251 10.2129 28.251H17.0701C17.1537 28.9983 17.1018 29.8922 16.9258 30.7654H14.1749C13.9053 30.7654 13.6866 30.984 13.6866 31.2537C13.6866 31.5233 13.9053 31.7419 14.1749 31.7419H26.8254C27.095 31.7419 27.3137 31.5233 27.3137 31.2537C27.3137 30.984 27.095 30.7654 26.8254 30.7654H24.0475C23.8558 29.884 23.7939 28.9897 23.8756 28.251H30.7871C32.0073 28.251 33 27.2582 33 26.0381V11.7904C33 10.8225 32.2126 10.035 31.2449 10.035V10.035ZM14.9046 17.9834L16.3935 18.8431L14.9046 19.7027V17.9834ZM17.1914 18.1761L15.0833 16.959L19.0841 10.0294L21.1921 11.2465L17.1914 18.1761ZM21.5808 8.1392C22.1619 8.47475 22.3618 9.22055 22.0263 9.8018L21.6804 10.4008L19.5724 9.18373L19.9182 8.58476C20.2538 8.00351 20.9995 7.8038 21.5808 8.1392ZM10.2129 11.0116H17.3894L13.9935 16.8935C13.9506 16.9678 13.928 17.052 13.928 17.1377V20.5484C13.928 20.8181 14.1467 21.0367 14.4163 21.0367H26.5837C26.8533 21.0367 27.072 20.8181 27.072 20.5484C27.072 20.2788 26.8533 20.0602 26.5837 20.0602H16.2386L17.6143 19.2659C17.6885 19.223 17.7501 19.1614 17.793 19.0872L22.4555 11.0116H31.2449C31.6742 11.0116 32.0234 11.3609 32.0234 11.7904V23.8439H8.97656V12.2479C8.97656 11.5662 9.53115 11.0116 10.2129 11.0116V11.0116ZM23.0507 30.7654H17.9197C18.0772 29.8977 18.1246 29.0153 18.0521 28.251H22.8937C22.8237 29.0091 22.8797 29.8914 23.0507 30.7654ZM30.7871 27.2744H10.2129C9.53115 27.2744 8.97656 26.7198 8.97656 26.0381V24.8205H32.0234V26.0381C32.0234 26.7198 31.4688 27.2744 30.7871 27.2744ZM27.072 17.5939C27.072 17.8635 26.8533 18.0822 26.5837 18.0822H21.5253C21.2557 18.0822 21.037 17.8635 21.037 17.5939C21.037 17.3243 21.2557 17.1056 21.5253 17.1056H26.5837C26.8533 17.1056 27.072 17.3243 27.072 17.5939Z" fill="white"/>
</svg>