<svg xmlns="http://www.w3.org/2000/svg" width="40" height="40" viewBox="0 0 40 40" fill="none">
<circle cx="20" cy="20" r="20" fill="#5956E9"/>
<path d="M11.0781 8.71875C11.3284 8.71875 11.5312 8.51588 11.5312 8.26562C11.5312 8.01537 11.3284 7.8125 11.0781 7.8125C10.8279 7.8125 10.625 8.01537 10.625 8.26562C10.625 8.51588 10.8279 8.71875 11.0781 8.71875Z" fill="white"/>
<path d="M12.8906 8.71875C13.1409 8.71875 13.3438 8.51588 13.3438 8.26562C13.3438 8.01537 13.1409 7.8125 12.8906 7.8125C12.6404 7.8125 12.4375 8.01537 12.4375 8.26562C12.4375 8.51588 12.6404 8.71875 12.8906 8.71875Z" fill="white"/>
<path d="M14.7031 8.71875C14.9534 8.71875 15.1562 8.51588 15.1562 8.26562C15.1562 8.01537 14.9534 7.8125 14.7031 7.8125C14.4529 7.8125 14.25 8.01537 14.25 8.26562C14.25 8.51588 14.4529 8.71875 14.7031 8.71875Z" fill="white"/>
<path d="M14.25 18.6875C14.967 18.6875 15.6678 18.4749 16.2639 18.0766C16.8601 17.6783 17.3247 17.1121 17.5991 16.4497C17.8734 15.7873 17.9452 15.0585 17.8053 14.3553C17.6655 13.6521 17.3202 13.0062 16.8133 12.4992C16.3063 11.9923 15.6604 11.647 14.9572 11.5072C14.254 11.3673 13.5252 11.4391 12.8628 11.7134C12.2004 11.9878 11.6342 12.4524 11.2359 13.0486C10.8376 13.6447 10.625 14.3455 10.625 15.0625C10.6261 16.0236 11.0083 16.945 11.6879 17.6246C12.3675 18.3042 13.2889 18.6864 14.25 18.6875ZM14.25 17.7813C13.8501 17.7816 13.455 17.6931 13.0934 17.5223C13.2148 17.3245 13.3848 17.1612 13.5873 17.0478C13.7898 16.9345 14.018 16.875 14.25 16.875C14.482 16.875 14.7102 16.9345 14.9127 17.0478C15.1152 17.1612 15.2852 17.3245 15.4066 17.5223C15.045 17.6931 14.6499 17.7816 14.25 17.7813ZM13.3438 15.0625C13.3438 14.8833 13.3969 14.708 13.4965 14.559C13.5961 14.41 13.7376 14.2938 13.9032 14.2252C14.0688 14.1566 14.251 14.1387 14.4268 14.1737C14.6026 14.2086 14.7641 14.2949 14.8908 14.4217C15.0176 14.5484 15.1039 14.7099 15.1388 14.8857C15.1738 15.0615 15.1559 15.2437 15.0873 15.4093C15.0187 15.5749 14.9025 15.7164 14.7535 15.816C14.6045 15.9156 14.4292 15.9688 14.25 15.9688C14.0097 15.9685 13.7794 15.8729 13.6095 15.703C13.4396 15.5331 13.344 15.3028 13.3438 15.0625V15.0625ZM14.25 12.3438C14.7902 12.3434 15.3182 12.504 15.7666 12.8052C16.215 13.1063 16.5635 13.5343 16.7675 14.0345C16.9715 14.5346 17.0219 15.0842 16.912 15.6131C16.8022 16.142 16.5372 16.6261 16.1509 17.0037C15.984 16.7485 15.7678 16.5293 15.515 16.3588C15.7732 16.1073 15.9504 15.7844 16.0242 15.4316C16.0979 15.0787 16.0648 14.7119 15.929 14.378C15.7932 14.0441 15.5609 13.7582 15.2618 13.557C14.9627 13.3558 14.6105 13.2483 14.25 13.2483C13.8895 13.2483 13.5373 13.3558 13.2382 13.557C12.9391 13.7582 12.7068 14.0441 12.571 14.378C12.4352 14.7119 12.4021 15.0787 12.4758 15.4316C12.5496 15.7844 12.7268 16.1073 12.985 16.3588C12.7322 16.5293 12.516 16.7485 12.3491 17.0037C11.9628 16.6261 11.6978 16.142 11.588 15.6131C11.4781 15.0842 11.5285 14.5346 11.7325 14.0345C11.9365 13.5343 12.285 13.1063 12.7334 12.8052C13.1818 12.504 13.7098 12.3434 14.25 12.3438V12.3438Z" fill="white"/>
<path d="M19.2344 15.0625H21.9531C22.0733 15.0625 22.1886 15.0148 22.2735 14.9298C22.3585 14.8448 22.4062 14.7296 22.4062 14.6094V11.8906C22.4062 11.7704 22.3585 11.6552 22.2735 11.5702C22.1886 11.4852 22.0733 11.4375 21.9531 11.4375H19.2344C19.1142 11.4375 18.9989 11.4852 18.914 11.5702C18.829 11.6552 18.7812 11.7704 18.7812 11.8906V14.6094C18.7812 14.7296 18.829 14.8448 18.914 14.9298C18.9989 15.0148 19.1142 15.0625 19.2344 15.0625ZM19.6875 12.3438H21.5V14.1562H19.6875V12.3438Z" fill="white"/>
<path d="M9.26562 27.75H15.9353L15.2556 30.4688H13.7969C13.1962 30.4694 12.6203 30.7083 12.1956 31.1331C11.7708 31.5578 11.5319 32.1337 11.5312 32.7344C11.5312 32.8546 11.579 32.9698 11.664 33.0548C11.7489 33.1398 11.8642 33.1875 11.9844 33.1875H25.5781C25.6983 33.1875 25.8136 33.1398 25.8985 33.0548C25.9835 32.9698 26.0312 32.8546 26.0312 32.7344C26.0306 32.1337 25.7917 31.5578 25.3669 31.1331C24.9422 30.7083 24.3663 30.4694 23.7656 30.4688H22.3069L21.6272 27.75H22.6717L23.4452 28.5235C23.4873 28.5656 23.5372 28.599 23.5922 28.6218C23.6472 28.6445 23.7061 28.6563 23.7656 28.6563C23.8251 28.6563 23.8841 28.6445 23.939 28.6218C23.994 28.599 24.044 28.5656 24.086 28.5235L24.8594 27.7503C24.9468 27.7904 25.0354 27.8279 25.125 27.8629V29.1094C25.125 29.2296 25.1727 29.3448 25.2577 29.4298C25.3427 29.5148 25.4579 29.5625 25.5781 29.5625H28.2969C28.4171 29.5625 28.5323 29.5148 28.6173 29.4298C28.7023 29.3448 28.75 29.2296 28.75 29.1094V27.8629C28.8396 27.828 28.9281 27.7904 29.0156 27.7503L29.789 28.5235C29.831 28.5656 29.881 28.599 29.936 28.6218C29.9909 28.6445 30.0499 28.6563 30.1094 28.6563C30.1689 28.6563 30.2278 28.6445 30.2828 28.6218C30.3378 28.599 30.3877 28.5656 30.4298 28.5235L32.2423 26.711C32.2844 26.669 32.3177 26.619 32.3405 26.564C32.3633 26.5091 32.375 26.4501 32.375 26.3906C32.375 26.3311 32.3633 26.2722 32.3405 26.2172C32.3177 26.1622 32.2844 26.1123 32.2423 26.0702L31.469 25.297C31.5091 25.2095 31.5467 25.1209 31.5817 25.0312H32.8281C32.9483 25.0312 33.0636 24.9835 33.1485 24.8985C33.2335 24.8136 33.2812 24.6983 33.2812 24.5781V21.8594C33.2812 21.7392 33.2335 21.6239 33.1485 21.539C33.0636 21.454 32.9483 21.4062 32.8281 21.4062H31.5817C31.5467 21.3166 31.5092 21.228 31.469 21.1405L32.2423 20.3673C32.2844 20.3252 32.3177 20.2753 32.3405 20.2203C32.3633 20.1653 32.375 20.1064 32.375 20.0469C32.375 19.9874 32.3633 19.9284 32.3405 19.8735C32.3177 19.8185 32.2844 19.7685 32.2423 19.7265L30.5625 18.0467V11.8906C30.5618 11.3686 30.3812 10.8627 30.051 10.4583C29.7208 10.0539 29.2614 9.77572 28.75 9.6706V7.35938C28.7496 6.99898 28.6062 6.65346 28.3514 6.39862C28.0965 6.14377 27.751 6.00042 27.3906 6H10.1719C9.81148 6.00042 9.46596 6.14377 9.21112 6.39862C8.95627 6.65346 8.81292 6.99898 8.8125 7.35938V9.6706C8.30114 9.77572 7.84165 10.0539 7.51149 10.4583C7.18133 10.8627 7.00068 11.3686 7 11.8906V25.4844C7.00067 26.085 7.23959 26.6609 7.66433 27.0857C8.08907 27.5104 8.66495 27.7493 9.26562 27.75V27.75ZM23.7656 31.375C24.0467 31.3753 24.3207 31.4626 24.5502 31.6249C24.7797 31.7871 24.9533 32.0164 25.0473 32.2812H12.5152C12.6092 32.0164 12.7828 31.7871 13.0123 31.6249C13.2418 31.4626 13.5158 31.3753 13.7969 31.375H23.7656ZM16.1897 30.4688L16.8694 27.75H20.6931L21.3728 30.4688H16.1897ZM28.75 17.3281V10.6092C29.0148 10.7032 29.2441 10.8768 29.4063 11.1062C29.5686 11.3356 29.6559 11.6096 29.6562 11.8906V18.0467L29.0156 18.6875C28.9282 18.6474 28.8396 18.6098 28.75 18.5748V17.3281ZM28.1614 19.3275C28.4131 19.4065 28.6565 19.5098 28.8881 19.6362C28.974 19.6831 29.0728 19.7009 29.1697 19.6869C29.2666 19.673 29.3563 19.628 29.4256 19.5588L30.1094 18.8752L31.2811 20.0469L30.5972 20.7307C30.528 20.7999 30.483 20.8897 30.4691 20.9866C30.4551 21.0834 30.473 21.1822 30.5199 21.2682C30.6462 21.4997 30.7496 21.7431 30.8285 21.9949C30.8573 22.0869 30.9148 22.1674 30.9926 22.2246C31.0704 22.2817 31.1644 22.3125 31.2609 22.3125H32.375V24.125H31.2609C31.1644 24.125 31.0704 24.1558 30.9926 24.2129C30.9148 24.2701 30.8573 24.3506 30.8285 24.4426C30.7496 24.6944 30.6462 24.9378 30.5199 25.1693C30.473 25.2553 30.4551 25.3541 30.4691 25.4509C30.483 25.5478 30.528 25.6376 30.5972 25.7068L31.2811 26.3906L30.1094 27.5624L29.4256 26.8785C29.3563 26.8093 29.2666 26.7643 29.1697 26.7504C29.0728 26.7364 28.974 26.7542 28.8881 26.8011C28.6565 26.9274 28.4131 27.0308 28.1614 27.1097C28.0693 27.1386 27.9888 27.1961 27.9317 27.2739C27.8746 27.3516 27.8438 27.4456 27.8438 27.5421V28.6562H26.0312V27.5421C26.0312 27.4456 26.0004 27.3516 25.9433 27.2739C25.8862 27.1961 25.8057 27.1386 25.7136 27.1097C25.4619 27.0308 25.2185 26.9274 24.9869 26.8011C24.901 26.7542 24.8022 26.7364 24.7053 26.7504C24.6084 26.7643 24.5187 26.8093 24.4494 26.8785L23.7656 27.5624L22.5939 26.3906L23.2778 25.7068C23.347 25.6376 23.392 25.5478 23.4059 25.4509C23.4199 25.3541 23.402 25.2553 23.3551 25.1693C23.2288 24.9378 23.1254 24.6944 23.0465 24.4426C23.0177 24.3506 22.9602 24.2701 22.8824 24.2129C22.8046 24.1558 22.7106 24.125 22.6141 24.125H21.5V22.3125H22.6141C22.7106 22.3125 22.8046 22.2817 22.8824 22.2246C22.9602 22.1674 23.0177 22.0869 23.0465 21.9949C23.1254 21.7431 23.2288 21.4997 23.3551 21.2682C23.402 21.1822 23.4199 21.0834 23.4059 20.9866C23.392 20.8897 23.347 20.7999 23.2778 20.7307L22.5939 20.0469L23.7656 18.8752L24.4494 19.559C24.5187 19.6282 24.6084 19.6732 24.7053 19.6871C24.8022 19.7011 24.901 19.6833 24.9869 19.6364C25.2185 19.5101 25.4619 19.4067 25.7136 19.3278C25.8057 19.2989 25.8862 19.2414 25.9433 19.1636C26.0004 19.0859 26.0312 18.9919 26.0312 18.8954V17.7812H27.8438V18.8954C27.8438 18.9918 27.8746 19.0858 27.9318 19.1635C27.9889 19.2412 28.0693 19.2987 28.1614 19.3275ZM9.71875 7.35938C9.71888 7.23924 9.76667 7.12406 9.85162 7.03912C9.93656 6.95417 10.0517 6.90638 10.1719 6.90625H27.3906C27.5108 6.90638 27.6259 6.95417 27.7109 7.03912C27.7958 7.12406 27.8436 7.23924 27.8438 7.35938V9.625H9.71875V7.35938ZM9.71875 10.5312H27.8438V16.875H25.5781C25.4579 16.875 25.3427 16.9227 25.2577 17.0077C25.1727 17.0927 25.125 17.2079 25.125 17.3281V18.5746C25.0354 18.6095 24.9469 18.647 24.8594 18.6872L24.086 17.914C24.044 17.8719 23.994 17.8385 23.939 17.8157C23.8841 17.793 23.8251 17.7812 23.7656 17.7812C23.7061 17.7812 23.6472 17.793 23.5922 17.8157C23.5372 17.8385 23.4873 17.8719 23.4452 17.914L22.4062 18.9529V16.4219C22.4062 16.3017 22.3585 16.1864 22.2735 16.1015C22.1886 16.0165 22.0733 15.9688 21.9531 15.9688H19.2344C19.1142 15.9688 18.9989 16.0165 18.914 16.1015C18.829 16.1864 18.7812 16.3017 18.7812 16.4219V19.1406C18.7812 19.2608 18.829 19.3761 18.914 19.461C18.9989 19.546 19.1142 19.5938 19.2344 19.5938H21.7654L21.6327 19.7265C21.5906 19.7685 21.5573 19.8185 21.5345 19.8735C21.5117 19.9284 21.5 19.9874 21.5 20.0469C21.5 20.1064 21.5117 20.1653 21.5345 20.2203C21.5573 20.2753 21.5906 20.3252 21.6327 20.3673L22.4062 21.1405C22.3661 21.228 22.3286 21.3166 22.2936 21.4062H10.1719C10.0517 21.4061 9.93656 21.3583 9.85162 21.2734C9.76667 21.1884 9.71888 21.0733 9.71875 20.9531V10.5312ZM21.5 16.875V18.6875H19.6875V16.875H21.5ZM7.90625 11.8906C7.90661 11.6096 7.99391 11.3356 8.15616 11.1062C8.31841 10.8768 8.54768 10.7032 8.8125 10.6092V20.9531C8.81292 21.3135 8.95627 21.659 9.21112 21.9139C9.46596 22.1687 9.81148 22.3121 10.1719 22.3125H20.5938V23.2188H7.90625V11.8906ZM7.90625 24.125H20.5938V24.5781C20.5938 24.6983 20.6415 24.8136 20.7265 24.8985C20.8114 24.9835 20.9267 25.0312 21.0469 25.0312H22.2933C22.3283 25.1209 22.3658 25.2094 22.406 25.297L21.6327 26.0702C21.5906 26.1123 21.5573 26.1622 21.5345 26.2172C21.5117 26.2722 21.5 26.3311 21.5 26.3906C21.5 26.4501 21.5117 26.5091 21.5345 26.564C21.5573 26.619 21.5906 26.669 21.6327 26.711L21.7654 26.8438H9.26562C8.90522 26.8433 8.55969 26.7 8.30485 26.4452C8.05 26.1903 7.90665 25.8448 7.90625 25.4844V24.125Z" fill="white"/>
<path d="M23.3125 23.2188C23.3125 23.9357 23.5251 24.6366 23.9234 25.2327C24.3217 25.8288 24.8879 26.2934 25.5503 26.5678C26.2127 26.8422 26.9415 26.914 27.6447 26.7741C28.3479 26.6342 28.9938 26.289 29.5008 25.782C30.0077 25.275 30.353 24.6291 30.4928 23.926C30.6327 23.2228 30.5609 22.4939 30.2866 21.8315C30.0122 21.1691 29.5476 20.603 28.9514 20.2047C28.3553 19.8064 27.6545 19.5938 26.9375 19.5938C25.9764 19.5948 25.055 19.9771 24.3754 20.6567C23.6958 21.3363 23.3136 22.2577 23.3125 23.2188ZM29.6562 23.2188C29.6562 23.7565 29.4968 24.2821 29.1981 24.7292C28.8993 25.1763 28.4747 25.5248 27.9779 25.7305C27.4811 25.9363 26.9345 25.9902 26.4071 25.8853C25.8797 25.7804 25.3953 25.5214 25.0151 25.1412C24.6348 24.761 24.3759 24.2765 24.271 23.7492C24.1661 23.2218 24.2199 22.6751 24.4257 22.1783C24.6315 21.6815 24.9799 21.2569 25.427 20.9582C25.8741 20.6595 26.3998 20.5 26.9375 20.5C27.6583 20.5008 28.3494 20.7875 28.8591 21.2972C29.3687 21.8069 29.6554 22.4979 29.6562 23.2188V23.2188Z" fill="white"/>
<path d="M25.125 23.2188C25.125 23.5772 25.2313 23.9277 25.4305 24.2257C25.6296 24.5238 25.9127 24.7561 26.2439 24.8933C26.5751 25.0305 26.9395 25.0664 27.2911 24.9964C27.6427 24.9265 27.9656 24.7539 28.2191 24.5004C28.4726 24.2469 28.6452 23.9239 28.7152 23.5724C28.7851 23.2208 28.7492 22.8563 28.612 22.5251C28.4748 22.1939 28.2425 21.9109 27.9445 21.7117C27.6464 21.5126 27.296 21.4062 26.9375 21.4062C26.457 21.4068 25.9963 21.5979 25.6565 21.9377C25.3167 22.2775 25.1255 22.7382 25.125 23.2188V23.2188ZM27.8438 23.2188C27.8438 23.398 27.7906 23.5732 27.691 23.7222C27.5914 23.8713 27.4499 23.9874 27.2843 24.056C27.1187 24.1246 26.9365 24.1426 26.7607 24.1076C26.5849 24.0726 26.4234 23.9863 26.2967 23.8596C26.1699 23.7328 26.0836 23.5713 26.0487 23.3956C26.0137 23.2198 26.0316 23.0375 26.1002 22.8719C26.1688 22.7063 26.285 22.5648 26.434 22.4652C26.583 22.3656 26.7583 22.3125 26.9375 22.3125C27.1778 22.3128 27.4081 22.4084 27.578 22.5782C27.7479 22.7481 27.8435 22.9785 27.8438 23.2188V23.2188Z" fill="white"/>
<path d="M23.7656 12.3438H26.4844C26.6046 12.3438 26.7198 12.296 26.8048 12.211C26.8898 12.1261 26.9375 12.0108 26.9375 11.8906C26.9375 11.7704 26.8898 11.6552 26.8048 11.5702C26.7198 11.4852 26.6046 11.4375 26.4844 11.4375H23.7656C23.6454 11.4375 23.5302 11.4852 23.4452 11.5702C23.3602 11.6552 23.3125 11.7704 23.3125 11.8906C23.3125 12.0108 23.3602 12.1261 23.4452 12.211C23.5302 12.296 23.6454 12.3438 23.7656 12.3438Z" fill="white"/>
<path d="M23.7656 14.1562H26.4844C26.6046 14.1562 26.7198 14.1085 26.8048 14.0235C26.8898 13.9386 26.9375 13.8233 26.9375 13.7031C26.9375 13.5829 26.8898 13.4677 26.8048 13.3827C26.7198 13.2977 26.6046 13.25 26.4844 13.25H23.7656C23.6454 13.25 23.5302 13.2977 23.4452 13.3827C23.3602 13.4677 23.3125 13.5829 23.3125 13.7031C23.3125 13.8233 23.3602 13.9386 23.4452 14.0235C23.5302 14.1085 23.6454 14.1562 23.7656 14.1562Z" fill="white"/>
<path d="M23.7656 15.9688H26.4844C26.6046 15.9688 26.7198 15.921 26.8048 15.836C26.8898 15.7511 26.9375 15.6358 26.9375 15.5156C26.9375 15.3954 26.8898 15.2802 26.8048 15.1952C26.7198 15.1102 26.6046 15.0625 26.4844 15.0625H23.7656C23.6454 15.0625 23.5302 15.1102 23.4452 15.1952C23.3602 15.2802 23.3125 15.3954 23.3125 15.5156C23.3125 15.6358 23.3602 15.7511 23.4452 15.836C23.5302 15.921 23.6454 15.9688 23.7656 15.9688Z" fill="white"/>
<path d="M15.6094 19.5938H12.8906C12.7704 19.5938 12.6552 19.6415 12.5702 19.7265C12.4852 19.8114 12.4375 19.9267 12.4375 20.0469C12.4375 20.1671 12.4852 20.2823 12.5702 20.3673C12.6552 20.4523 12.7704 20.5 12.8906 20.5H15.6094C15.7296 20.5 15.8448 20.4523 15.9298 20.3673C16.0148 20.2823 16.0625 20.1671 16.0625 20.0469C16.0625 19.9267 16.0148 19.8114 15.9298 19.7265C15.8448 19.6415 15.7296 19.5938 15.6094 19.5938V19.5938Z" fill="white"/>
</svg>