<svg xmlns="http://www.w3.org/2000/svg" width="40" height="40" viewBox="0 0 40 40" fill="none">
<circle cx="20" cy="20" r="20" fill="#5956E9"/>
<path d="M28.0228 13.98C27.8025 13.758 27.4439 13.7565 27.2218 13.9768C26.9998 14.1971 26.9983 14.5557 27.2186 14.7778L27.222 14.7813C27.3323 14.8925 27.4768 14.9479 27.6216 14.9479C27.7659 14.9479 27.9104 14.8927 28.0213 14.7828C28.2434 14.5624 28.2431 14.2021 28.0228 13.98Z" fill="white"/>
<path d="M34.8341 20.7918L29.5734 15.5312C29.3522 15.31 28.9936 15.31 28.7723 15.5312C28.5512 15.7523 28.5512 16.111 28.7723 16.3322L32.9486 20.5084H22.9897C22.1636 20.5084 21.4915 19.8363 21.4915 19.0102V9.05141L25.5234 13.0832C25.7446 13.3043 26.1032 13.3043 26.3244 13.0832C26.5456 12.862 26.5456 12.5034 26.3244 12.2821L21.2081 7.16584C20.9869 6.94472 20.6283 6.94472 20.4071 7.16584L11.3774 16.1957C11.1563 16.4168 11.1563 16.7755 11.3774 16.9967L25.0034 30.6227C25.1096 30.7289 25.2537 30.7886 25.4039 30.7886C25.5541 30.7886 25.6982 30.7289 25.8044 30.6227L34.8341 21.5929C34.9403 21.4866 35 21.3426 35 21.1924C35 21.0422 34.9403 20.8981 34.8341 20.7918ZM20.3588 8.81629V16.0298H13.1453L20.3588 8.81629ZM24.8375 28.8547L13.1453 17.1626H20.3588V19.0102C20.3588 20.4609 21.5391 21.6412 22.9898 21.6412H24.8375V28.8547ZM25.9703 28.8547V21.6412H33.1837L25.9703 28.8547Z" fill="white"/>
<path d="M9.8873 18.7812H6.56641C6.25358 18.7812 6 19.0349 6 19.3477C6 19.6604 6.25358 19.9141 6.56641 19.9141H9.8873C10.2001 19.9141 10.4537 19.6605 10.4537 19.3477C10.4537 19.0349 10.2001 18.7812 9.8873 18.7812Z" fill="white"/>
<path d="M11.5761 18.7812H11.5676C11.2547 18.7812 11.0012 19.0349 11.0012 19.3477C11.0012 19.6604 11.2547 19.9141 11.5676 19.9141H11.5761C11.8889 19.9141 12.1425 19.6604 12.1425 19.3477C12.1425 19.0349 11.8889 18.7812 11.5761 18.7812Z" fill="white"/>
<path d="M8.37981 12.834H6.56714C6.25431 12.834 6.00073 13.0876 6.00073 13.4004C6.00073 13.7132 6.25431 13.9668 6.56714 13.9668H8.37981C8.69263 13.9668 8.94621 13.7132 8.94621 13.4004C8.94621 13.0876 8.69263 12.834 8.37981 12.834Z" fill="white"/>
<path d="M12.3726 12.834H10.23C9.91722 12.834 9.66364 13.0876 9.66364 13.4004C9.66364 13.7132 9.91722 13.9668 10.23 13.9668H12.3726C12.6855 13.9668 12.939 13.7132 12.939 13.4004C12.939 13.0876 12.6855 12.834 12.3726 12.834Z" fill="white"/>
<path d="M13.6058 21.8965H10.434C10.1212 21.8965 9.86761 22.1501 9.86761 22.4629C9.86761 22.7757 10.1212 23.0293 10.434 23.0293H13.6058C13.9187 23.0293 14.1722 22.7757 14.1722 22.4629C14.1722 22.1501 13.9186 21.8965 13.6058 21.8965Z" fill="white"/>
<path d="M16.0825 25.5215H8.09619C7.78337 25.5215 7.52979 25.7751 7.52979 26.0879C7.52979 26.4007 7.78337 26.6543 8.09619 26.6543H16.0825C16.3953 26.6543 16.6489 26.4007 16.6489 26.0879C16.6489 25.7751 16.3953 25.5215 16.0825 25.5215Z" fill="white"/>
</svg>