<svg xmlns="http://www.w3.org/2000/svg" width="40" height="40" viewBox="0 0 40 40" fill="none">
<circle cx="20" cy="20" r="20" fill="#5956E9"/>
<path d="M20.5 17.7197H32.2327C32.3621 18.4426 32.4269 19.133 32.4269 19.7911C32.4269 22.1323 31.936 24.2226 30.9542 26.0621C29.9724 27.9015 28.5726 29.3391 26.7547 30.3748C24.9368 31.4106 22.8519 31.9284 20.5 31.9284C18.8062 31.9284 17.1932 31.6021 15.6613 30.9493C14.1293 30.2966 12.8076 29.4147 11.6964 28.3034C10.5852 27.1922 9.7032 25.8706 9.05048 24.3386C8.39777 22.8066 8.07141 21.1937 8.07141 19.4999C8.07141 17.806 8.39777 16.1931 9.05048 14.6611C9.7032 13.1291 10.5852 11.8075 11.6964 10.6963C12.8076 9.58505 14.1293 8.70308 15.6613 8.05036C17.1932 7.39765 18.8062 7.07129 20.5 7.07129C23.7366 7.07129 26.5147 8.15555 28.8342 10.3241L25.452 13.5769C24.125 12.293 22.4743 11.6511 20.5 11.6511C19.1082 11.6511 17.8217 12.0017 16.6403 12.703C15.459 13.4042 14.523 14.3563 13.8326 15.5593C13.1421 16.7622 12.7969 18.0757 12.7969 19.4999C12.7969 20.924 13.1421 22.2375 13.8326 23.4404C14.523 24.6434 15.459 25.5955 16.6403 26.2967C17.8217 26.998 19.1082 27.3486 20.5 27.3486C21.4386 27.3486 22.3017 27.2192 23.0893 26.9602C23.8768 26.7013 24.5242 26.3776 25.0312 25.9892C25.5383 25.6009 25.9806 25.1585 26.3582 24.6622C26.7358 24.166 27.0136 23.6967 27.1917 23.2543C27.3697 22.812 27.491 22.3912 27.5558 21.992H20.5V17.7197Z" fill="white"/>
</svg>