<svg xmlns="http://www.w3.org/2000/svg" width="40" height="40" viewBox="0 0 40 40" fill="none">
<circle cx="20" cy="20" r="20" fill="#5956E9"/>
<g clip-path="url(#clip0_202_65)">
<path d="M33.8834 19.8497C33.6766 19.6428 31.0225 16.2994 30.5747 15.7477C30.0921 15.1962 29.8853 15.2997 29.5758 15.334C29.2664 15.3683 25.9221 15.9545 25.543 15.9889C25.1638 16.0578 24.9224 16.1957 25.1638 16.5403C25.3707 16.8506 27.5777 19.9531 28.0592 20.6766L19.2695 22.7784L12.3056 11.0943C12.0299 10.6808 11.9608 10.5428 11.3404 10.5774C10.7201 10.6119 5.85961 11.0254 5.51501 11.0254C5.1704 11.0599 4.79063 11.1977 5.13586 12.0251C5.48109 12.8525 10.9956 24.7097 11.1336 25.0546C11.2716 25.3994 11.685 25.9508 12.6159 25.744C13.581 25.5026 16.8901 24.6411 18.717 24.1583C19.6822 25.8817 21.6124 29.3977 21.9916 29.9146C22.4742 30.6041 22.8188 30.4661 23.5427 30.2592C24.1287 30.0869 32.5741 27.0546 32.953 26.8812C33.332 26.7079 33.5736 26.6055 33.2976 26.2263C33.0908 25.9506 30.8837 22.9518 29.7128 21.4006C30.5056 21.1938 33.3665 20.4355 33.6768 20.332C34.0214 20.228 34.0905 20.0563 33.8836 19.8495L33.8834 19.8497ZM17.924 23.1234C17.8199 23.158 12.8914 24.3304 12.6502 24.3989C12.3745 24.4677 12.3745 24.4334 12.3745 24.33C12.3056 24.2263 6.5147 12.2319 6.41127 12.0944C6.34239 11.9564 6.34239 11.8186 6.41127 11.8186C6.48015 11.8186 11.0645 11.4045 11.2025 11.4045C11.3748 11.4045 11.3404 11.4391 11.4093 11.5425C11.4093 11.5425 17.8551 22.6756 17.9585 22.8485C18.0965 23.0208 18.0274 23.0899 17.924 23.1243V23.1234ZM31.7806 25.7094C31.8495 25.8474 31.9529 25.9163 31.6766 25.9852C31.4354 26.0892 23.3694 28.8117 23.1971 28.8806C23.0248 28.9495 22.9214 28.9847 22.7145 28.6738C22.5077 28.3629 19.888 23.848 19.888 23.848L28.4719 21.6075C28.6787 21.5386 28.7476 21.5034 28.8856 21.7115C29.0236 21.9529 31.7122 25.6066 31.781 25.7101L31.7806 25.7094ZM32.3321 19.6428C32.1252 19.6774 28.9886 20.47 28.9886 20.47L26.4034 16.9532C26.3346 16.8491 26.2655 16.7463 26.438 16.7118C26.6105 16.6773 29.5403 16.1603 29.678 16.1258C29.8158 16.0913 29.9194 16.0569 30.0917 16.2981C30.264 16.505 32.47 19.3315 32.5735 19.4349C32.6769 19.5384 32.5389 19.6072 32.3321 19.6418V19.6428Z" fill="white"/>
</g>
<defs>
<clipPath id="clip0_202_65">
<rect width="29" height="29" fill="white" transform="translate(5 6)"/>
</clipPath>
</defs>
</svg>