<svg xmlns="http://www.w3.org/2000/svg" width="40" height="40" viewBox="0 0 40 40" fill="none">
<circle cx="20" cy="20" r="20" fill="#5956E9"/>
<path d="M27.4245 26.0199C28.0938 26.0199 28.6385 25.4752 28.6385 24.8058C28.6385 24.1365 28.0938 23.5918 27.4245 23.5918C26.7551 23.5918 26.2104 24.1365 26.2104 24.8058C26.2104 25.4752 26.7551 26.0199 27.4245 26.0199ZM27.4245 24.4012C27.6475 24.4012 27.8292 24.5824 27.8292 24.8058C27.8292 25.0292 27.6475 25.2105 27.4245 25.2105C27.2015 25.2105 27.0198 25.0292 27.0198 24.8058C27.0198 24.5824 27.2015 24.4012 27.4245 24.4012Z" fill="white"/>
<path d="M31.536 23.0973C31.4134 22.8035 31.4786 22.4696 31.7016 22.2462L32.2904 21.657L30.5729 19.9396L29.9833 20.5288C29.7603 20.7522 29.4261 20.8169 29.1169 20.6874C28.8263 20.5676 28.6385 20.2868 28.6385 19.9719V19.1403H27.8086C27.7717 18.4876 27.6507 17.8567 27.45 17.259L32.1329 12.5761C32.7501 11.9589 33.09 11.1386 33.09 10.2662C33.09 8.46534 31.6247 7 29.8238 7C28.9514 7 28.1311 7.33993 27.5144 7.95666L22.8363 12.6351C22.2313 12.432 21.5899 12.3138 20.9274 12.2786C20.369 11.3029 19.3196 10.6421 18.1169 10.6421C17.809 10.6421 17.5119 10.6882 17.2291 10.7688C16.5306 9.45558 15.1737 8.61871 13.6655 8.61871C11.4341 8.61871 9.61871 10.4341 9.61871 12.6655C9.61871 12.9755 9.65675 13.2806 9.72595 13.5792C8.72842 13.8811 8 14.8083 8 15.9029C8 17.242 9.08899 18.331 10.4281 18.331H13.3636C13.2964 18.7312 13.2608 19.1375 13.2608 19.545C13.2608 20.4357 13.4255 21.1605 13.6914 21.7796L10.0813 25.3902L8.07244 30.6129C8.02428 30.7376 8 30.8687 8 31.0026C8 31.6024 8.48804 32.09 9.08737 32.09C9.22132 32.09 9.35243 32.0653 9.47748 32.0176L14.7002 30.0087L17.34 27.3686C17.3201 27.4556 17.3076 27.5455 17.3076 27.6385C17.3076 27.9506 17.4294 28.2326 17.6232 28.4479C17.429 28.6632 17.3076 28.9453 17.3076 29.2573C17.3076 29.8198 17.694 30.29 18.2141 30.4268C18.5588 31.4142 19.4823 32.09 20.545 32.09C21.6077 32.09 22.5312 31.4142 22.8759 30.4268C23.396 30.29 23.7824 29.8198 23.7824 29.2573C23.7824 29.2269 23.7755 29.1986 23.7735 29.169L24.2761 29.6716L24.8657 29.0824C25.0887 28.8591 25.4218 28.7939 25.7318 28.923C26.0223 29.044 26.2105 29.3248 26.2105 29.6397V30.4713H28.6385V29.6397C28.6385 29.3248 28.8267 29.0436 29.1331 28.9169C29.4269 28.7947 29.7607 28.8591 29.9837 29.0824L30.5729 29.6716L32.2904 27.9542L31.7016 27.365C31.4786 27.1416 31.4134 26.8077 31.5425 26.4986C31.6627 26.208 31.9435 26.0198 32.2584 26.0198H33.09V23.5918H32.2584C31.9435 23.5918 31.6627 23.4036 31.536 23.0973V23.0973ZM25.4724 24.2902C25.9139 23.8593 26.3562 23.419 26.7378 22.9099C26.9579 22.8298 27.187 22.7824 27.4245 22.7824C28.5402 22.7824 29.4479 23.6901 29.4479 24.8058C29.4479 25.9215 28.5402 26.8292 27.4245 26.8292C26.3088 26.8292 25.4011 25.9215 25.4011 24.8058C25.4011 24.6306 25.4282 24.4582 25.4724 24.2902V24.2902ZM25.9584 14.7042L27.8292 12.833L29.2804 14.2842L27.119 16.4456C26.8159 15.8094 26.4242 15.2243 25.9584 14.7042V14.7042ZM26.378 10.2374L27.0198 9.5956L30.4944 13.0702L29.8526 13.712L26.378 10.2374ZM29.8238 7.80935C31.1783 7.80935 32.2806 8.9117 32.2806 10.2662C32.2806 10.9221 32.0253 11.5393 31.5611 12.0034L31.0666 12.4979L27.5921 9.02339L28.0866 8.52887C28.5507 8.06511 29.1675 7.80935 29.8238 7.80935V7.80935ZM25.8058 10.8096L27.257 12.2608L25.387 14.1308C24.8674 13.6646 24.2826 13.2725 23.6464 12.969L25.8058 10.8096ZM27.0198 19.545C27.0198 21.6505 25.9596 22.6849 24.837 23.7795C24.0641 24.5335 23.2701 25.3129 22.808 26.4488C22.7307 26.433 22.6505 26.4245 22.5684 26.4245H20.9497V24.4011C20.9497 23.7318 20.405 23.1871 19.7356 23.1871H18.9263C18.7033 23.1871 18.5216 23.0058 18.5216 22.7824C18.5216 22.559 18.7033 22.3777 18.9263 22.3777H22.9731C23.6424 22.3777 24.1871 21.833 24.1871 21.1637C24.1871 20.4944 23.6424 19.9497 22.9731 19.9497H19.7356C19.5127 19.9497 19.331 19.7684 19.331 19.545V18.331H21.3544C22.4701 18.331 23.3777 17.4233 23.3777 16.3076C23.3777 15.1919 22.4701 14.2842 21.3544 14.2842C21.343 14.2842 21.3325 14.2874 21.3212 14.2874C21.3386 14.1523 21.3544 14.0171 21.3544 13.8795C21.3544 13.6149 21.3187 13.3587 21.2589 13.1122C24.4849 13.4716 27.0198 16.2404 27.0198 19.545V19.545ZM18.1169 27.6385C18.1169 27.4152 18.2986 27.2339 18.5216 27.2339H22.5684C22.7914 27.2339 22.9731 27.4152 22.9731 27.6385C22.9731 27.8619 22.7914 28.0432 22.5684 28.0432H18.5216C18.2986 28.0432 18.1169 27.8619 18.1169 27.6385ZM13.0237 27.6385L15.9984 24.6638C16.4962 25.1575 16.9583 25.6568 17.2991 26.2651L14.4748 29.0897L13.0237 27.6385ZM8.80935 15.9029C8.80935 15.0102 9.53535 14.2842 10.4281 14.2842C11.3208 14.2842 12.0468 15.0102 12.0468 15.9029H12.8561C12.8561 14.599 11.8222 13.5347 10.5317 13.4801C10.4629 13.2154 10.4281 12.9423 10.4281 12.6655C10.4281 10.8805 11.8805 9.42806 13.6655 9.42806C14.8492 9.42806 15.9175 10.0715 16.4857 11.0876C15.6229 11.5939 15.0135 12.4854 14.8997 13.5258C14.1932 13.6998 13.6655 14.334 13.6655 15.0935H14.4748C14.4748 14.6472 14.8378 14.2842 15.2842 14.2842C15.7306 14.2842 16.0935 14.6472 16.0935 15.0935H16.9029C16.9029 14.351 16.3979 13.7306 15.7152 13.5404C15.8811 12.362 16.8932 11.4515 18.1169 11.4515C19.456 11.4515 20.545 12.5404 20.545 13.8795C20.545 14.0924 20.5102 14.3008 20.456 14.5039C19.7923 14.8362 19.331 15.516 19.331 16.3076H20.1403C20.1403 15.6382 20.685 15.0935 21.3544 15.0935C22.0237 15.0935 22.5684 15.6382 22.5684 16.3076C22.5684 16.9769 22.0237 17.5216 21.3544 17.5216H10.4281C9.53535 17.5216 8.80935 16.7956 8.80935 15.9029V15.9029ZM18.5216 18.331V19.545C18.5216 20.2143 19.0663 20.759 19.7356 20.759H22.9731C23.196 20.759 23.3777 20.9403 23.3777 21.1637C23.3777 21.3871 23.196 21.5684 22.9731 21.5684H18.9263C18.257 21.5684 17.7123 22.1131 17.7123 22.7824C17.7123 23.4518 18.257 23.9965 18.9263 23.9965H19.7356C19.9586 23.9965 20.1403 24.1777 20.1403 24.4011V26.4245H18.5216C18.4395 26.4245 18.3593 26.433 18.282 26.4488C17.8199 25.3129 17.0259 24.5335 16.253 23.7795C15.1304 22.6849 14.0702 21.6505 14.0702 19.545C14.0702 19.1359 14.1191 18.7304 14.1948 18.331H18.5216ZM15.4206 24.0972L12.4515 27.0663L11.0003 25.6152L14.088 22.5275C14.468 23.124 14.939 23.6217 15.4206 24.0972V24.0972ZM10.5822 26.3416L13.7484 29.5078L11.0679 30.5389L9.55113 29.0221L10.5822 26.3416ZM9.18732 31.262C9.0121 31.33 8.80935 31.1904 8.80935 31.0026C8.80935 30.9682 8.81583 30.9346 8.82757 30.9031L9.23305 29.8485L10.2411 30.8565L9.18732 31.262ZM20.545 31.2806C19.9473 31.2806 19.4143 30.9626 19.1189 30.4713H21.9711C21.6757 30.9626 21.1427 31.2806 20.545 31.2806ZM22.5684 29.6619H18.5216C18.2986 29.6619 18.1169 29.4806 18.1169 29.2573C18.1169 29.0339 18.2986 28.8526 18.5216 28.8526H22.5684C22.7914 28.8526 22.9731 29.0339 22.9731 29.2573C22.9731 29.4806 22.7914 29.6619 22.5684 29.6619ZM32.2806 25.2105H32.2584C31.6145 25.2105 31.0399 25.5949 30.789 26.2028C30.5397 26.8005 30.6733 27.4811 31.1289 27.9372L31.1459 27.9542L30.5729 28.5272L30.5559 28.5102C30.0994 28.0537 29.418 27.9198 28.8081 28.1756C28.2136 28.4216 27.8292 28.9958 27.8292 29.6397V29.6619H27.0198V29.6397C27.0198 28.9958 26.6354 28.4212 26.0276 28.1699C25.4291 27.9202 24.7484 28.0542 24.2927 28.5102L24.2757 28.5272L23.7274 27.9789C23.7598 27.87 23.7824 27.7575 23.7824 27.6385C23.7824 27.3512 23.678 27.0906 23.5105 26.8822C23.7622 26.2028 24.1567 25.6593 24.6161 25.1575C24.7901 26.5536 25.9818 27.6385 27.4245 27.6385C28.9866 27.6385 30.2573 26.3675 30.2573 24.8058C30.2573 23.2442 28.9866 21.9731 27.4245 21.9731C27.3849 21.9731 27.3464 21.9771 27.3072 21.9787C27.5811 21.4102 27.7693 20.7509 27.8166 19.9497H27.8292V19.9719C27.8292 20.6158 28.2136 21.1908 28.8211 21.4413C29.4184 21.6914 30.0998 21.5579 30.5559 21.1014L30.5729 21.0844L31.1459 21.6574L31.1289 21.6744C30.6733 22.1305 30.5397 22.8116 30.7943 23.4218C31.0399 24.0167 31.6145 24.4011 32.2584 24.4011H32.2806V25.2105Z" fill="white"/>
</svg>