<svg xmlns="http://www.w3.org/2000/svg" width="40" height="40" viewBox="0 0 40 40" fill="none">
<circle cx="20" cy="20" r="20" fill="#5956E9"/>
<path d="M32.209 7H29.0449C28.6081 7 28.2539 7.35416 28.2539 7.79102V8.58203H21.737C21.4105 7.66139 20.5312 7 19.5 7C18.4688 7 17.5895 7.66139 17.263 8.58203H10.7461V7.79102C10.7461 7.35416 10.3919 7 9.95508 7H6.79102C6.35416 7 6 7.35416 6 7.79102V10.9551C6 11.3919 6.35416 11.7461 6.79102 11.7461H9.95508C10.3919 11.7461 10.7461 11.3919 10.7461 10.9551V10.1535H14.0355C11.1817 11.9609 9.44698 15.0143 9.23831 18.2557C8.3065 18.5761 7.63477 19.4608 7.63477 20.5C7.63477 21.8085 8.69931 22.873 10.0078 22.873C11.3163 22.873 12.3809 21.8085 12.3809 20.5C12.3809 19.478 11.7314 18.6048 10.8236 18.2714C11.1045 14.5459 13.7872 11.3372 17.3746 10.4268C17.7635 11.2079 18.5698 11.7461 19.5 11.7461C20.4302 11.7461 21.2365 11.2079 21.6254 10.4268C25.2129 11.3372 27.8955 14.546 28.1764 18.2715C27.2686 18.6048 26.6191 19.478 26.6191 20.5C26.6191 21.8085 27.6837 22.873 28.9922 22.873C30.3007 22.873 31.3652 21.8085 31.3652 20.5C31.3652 19.4608 30.6935 18.5761 29.7617 18.2557C29.5526 15.0078 27.8127 11.9679 24.9645 10.1641H28.2539V10.9551C28.2539 11.3919 28.6081 11.7461 29.0449 11.7461H32.209C32.6458 11.7461 33 11.3919 33 10.9551V7.79102C33 7.35416 32.6458 7 32.209 7ZM9.16406 10.1641H7.58203V8.58203H9.16406V10.1641ZM10.0078 21.291C9.57165 21.291 9.2168 20.9362 9.2168 20.5C9.2168 20.0638 9.57165 19.709 10.0078 19.709C10.444 19.709 10.7988 20.0638 10.7988 20.5C10.7988 20.9362 10.444 21.291 10.0078 21.291ZM19.5 10.1641C19.0638 10.1641 18.709 9.80921 18.709 9.37305C18.709 8.93688 19.0638 8.58203 19.5 8.58203C19.9362 8.58203 20.291 8.93688 20.291 9.37305C20.291 9.80921 19.9362 10.1641 19.5 10.1641ZM28.9922 19.709C29.4284 19.709 29.7832 20.0638 29.7832 20.5C29.7832 20.9362 29.4284 21.291 28.9922 21.291C28.556 21.291 28.2012 20.9362 28.2012 20.5C28.2012 20.0638 28.556 19.709 28.9922 19.709ZM31.418 10.1641H29.8359V8.58203H31.418V10.1641Z" fill="white"/>
<path d="M26.4862 23.2257L20.1581 13.7336C20.1579 13.7332 20.1576 13.7329 20.1574 13.7326C20.1552 13.7292 20.1527 13.726 20.1504 13.7226C20.1395 13.7069 20.1281 13.6917 20.1161 13.6769C19.7828 13.2627 19.1481 13.2906 18.8496 13.7226C18.8473 13.726 18.8448 13.7292 18.8426 13.7326C18.8423 13.7329 18.8421 13.7332 18.8419 13.7336L12.5137 23.2257C12.3045 23.5395 12.3459 23.9572 12.6126 24.2238C14.1908 25.802 15.1952 27.865 15.4689 30.0721C15.3461 30.1714 15.2275 30.2778 15.115 30.3928C14.3721 31.1528 13.9629 32.1531 13.9629 33.2094C13.9629 33.6463 14.317 34.0004 14.7539 34.0004H24.2461C24.6829 34.0004 25.0371 33.6463 25.0371 33.2094C25.0371 32.1531 24.6279 31.1528 23.885 30.3928C23.7725 30.2777 23.654 30.1714 23.5311 30.0721C23.8047 27.8648 24.8092 25.8019 26.3874 24.2238C26.654 23.9572 26.6954 23.5394 26.4862 23.2257ZM19.5 22.8735C19.9362 22.8735 20.291 23.2283 20.291 23.6645C20.291 24.1007 19.9362 24.4555 19.5 24.4555C19.0638 24.4555 18.709 24.1007 18.709 23.6645C18.709 23.2283 19.0638 22.8735 19.5 22.8735ZM15.6798 32.4184C16.0089 31.478 16.9011 30.7836 17.918 30.7836H21.082C22.0989 30.7836 22.9911 31.478 23.3202 32.4184H15.6798ZM22.0442 29.322C21.733 29.2426 21.4105 29.2016 21.082 29.2016H17.918C17.5895 29.2016 17.267 29.2426 16.9558 29.322C16.5856 27.19 15.6242 25.1971 14.1794 23.5793L18.709 16.7849V21.4276C17.7883 21.7541 17.1269 22.6333 17.1269 23.6645C17.1269 24.973 18.1915 26.0376 19.5 26.0376C20.8085 26.0376 21.873 24.973 21.873 23.6645C21.873 22.6333 21.2117 21.7541 20.291 21.4276V16.7849L24.8207 23.5793C23.3758 25.197 22.4143 27.1899 22.0442 29.322Z" fill="white"/>
</svg>