<svg xmlns="http://www.w3.org/2000/svg" width="40" height="40" viewBox="0 0 40 40" fill="none">
<circle cx="20" cy="20" r="20" fill="#5956E9"/>
<path d="M19.4942 35.5C19.0823 35.4994 18.6783 35.3877 18.3247 35.1766L14.5991 32.8957C14.0427 32.5749 14.3163 32.4595 14.4977 32.3936C15.2405 32.1277 15.4619 31.9958 16.2518 31.5298C16.3366 31.4829 16.4449 31.5 16.5299 31.5524L19.322 33.2051C19.4258 33.2648 19.5721 33.2648 19.6687 33.2051L30.5803 26.719C30.684 26.6574 30.7501 26.533 30.7501 26.4068V13.272C30.7501 13.142 30.684 13.0195 30.5779 12.9537L19.6711 6.29704C19.5671 6.23418 19.4305 6.23418 19.3267 6.29704L8.42691 12.956C8.31834 13.0195 8.25 13.1457 8.25 13.272V26.4068C8.25 26.5342 8.31834 26.6538 8.42445 26.7154L11.232 28.4009C12.892 29.259 13.875 28.3889 13.875 27.3736V14.4572C13.875 14.2708 14.0189 14.1249 14.1982 14.1249H15.8019C15.9787 14.1249 16.1251 14.2705 16.1251 14.4572V27.3735C16.1251 29.6631 14.7644 30.9769 12.6658 30.9769C12.0221 30.9769 11.5129 30.9769 10.0958 30.2541L7.1719 28.5117C6.44796 28.0791 6 27.271 6 26.4055V13.0837C6 12.2178 6.44796 11.4114 7.17176 10.9802L18.3293 4.31008C19.0343 3.89664 19.9728 3.89664 20.673 4.31008L31.828 10.9802C32.5521 11.4126 33 12.2195 33 13.0837V26.4055C33 27.271 32.5521 28.0754 31.828 28.5116L20.673 35.1754C20.318 35.3873 19.9123 35.4991 19.4989 35.4987L19.4942 35.5V35.5Z" fill="white"/>
<path d="M22.9413 26.5039C18.3985 26.5039 17.0347 24.2813 17.0347 22.3364C17.0347 22.1516 17.1787 22.0039 17.3554 22.0039H18.7983C18.9588 22.0039 19.0955 22.1234 19.1191 22.2863C19.3359 23.8052 20.2967 24.4765 22.9387 24.4765C25.2871 24.4765 26.2498 23.7491 26.2498 22.4597C26.2498 21.7149 26.0063 21.1642 22.354 20.7935C19.3006 20.4812 17.4119 19.7829 17.4119 17.2571C17.4119 14.9273 19.3101 13.5664 22.4909 13.5664C25.7342 13.5664 27.8671 14.5508 28.0577 17.1403C28.0649 17.2343 28.0318 17.3252 27.9705 17.3965C27.9092 17.4644 27.8243 17.5039 27.7347 17.5039H26.2869C26.136 17.5039 26.004 17.3941 25.9734 17.2428C25.6639 16.0508 24.7802 15.5974 22.4885 15.5974C19.923 15.5974 19.6235 16.4941 19.6235 17.1869C19.6235 18.0281 19.9773 18.2726 23.4411 18.7459C26.8696 19.2144 28.4989 19.8791 28.4989 22.3707C28.4989 24.8865 26.4733 26.5038 22.9389 26.5038L22.9413 26.5039V26.5039Z" fill="white"/>
</svg>