<svg xmlns="http://www.w3.org/2000/svg" width="40" height="40" viewBox="0 0 40 40" fill="none">
<circle cx="20" cy="20" r="20" fill="#5956E9"/>
<path d="M19.2559 28.8245C19.1578 28.7264 19.0217 28.6699 18.8831 28.6699C18.7444 28.6699 18.6083 28.7263 18.5102 28.8245C18.4121 28.9225 18.3557 29.0586 18.3557 29.1973C18.3557 29.3365 18.4121 29.472 18.5102 29.5701C18.6083 29.6687 18.7444 29.7246 18.8831 29.7246C19.0217 29.7246 19.1578 29.6687 19.2559 29.5701C19.354 29.472 19.4104 29.336 19.4104 29.1973C19.4104 29.0586 19.3539 28.9225 19.2559 28.8245Z" fill="white"/>
<path d="M21.7667 23.9584V20.0781C21.7667 19.9029 21.6797 19.7391 21.5345 19.6411C21.3893 19.543 21.2049 19.5235 21.0423 19.5889L11.9555 23.2485H9.02875C7.35876 23.2485 6.00006 24.6072 6.00006 26.2773C6.00006 27.9474 7.35876 29.3061 9.02886 29.3061H9.37738V32.4729C9.37738 32.7641 9.61347 33.0003 9.90472 33.0003H12.0576C12.3488 33.0003 12.5849 32.7641 12.5849 32.4729V29.5605L21.0426 32.9622C21.106 32.9877 21.1728 33.0003 21.2393 33.0003C21.3431 33.0003 21.4461 32.9697 21.5346 32.9099C21.6797 32.8119 21.7667 32.6481 21.7667 32.473V28.5927C22.8242 28.3521 23.6162 27.4049 23.6162 26.2756C23.6162 25.1463 22.8242 24.199 21.7667 23.9584ZM11.5302 31.9456H10.4321V29.3061H11.5302V31.9456H11.5302ZM11.5303 28.2514H9.02886C7.94032 28.2514 7.05475 27.3658 7.05475 26.2773C7.05475 25.1888 7.94032 24.3032 9.02886 24.3032H11.5305L11.5303 28.2514ZM20.7121 31.6924H20.712L12.5852 28.4238V24.1319L18.3557 21.8079V27.0413C18.3557 27.3325 18.5918 27.5686 18.8831 27.5686C19.1743 27.5686 19.4104 27.3325 19.4104 27.0413V21.3832L20.7121 20.8589V31.6924ZM21.7667 27.4876V25.0634C22.234 25.2675 22.5615 25.7339 22.5615 26.2755C22.5615 26.8172 22.234 27.2836 21.7667 27.4876Z" fill="white"/>
<path d="M28.647 25.7646H25.6613C25.37 25.7646 25.1339 26.0008 25.1339 26.292C25.1339 26.5832 25.37 26.8193 25.6613 26.8193H28.647C28.9382 26.8193 29.1743 26.5832 29.1743 26.292C29.1743 26.0008 28.9382 25.7646 28.647 25.7646Z" fill="white"/>
<path d="M26.1984 21.8995C25.9925 21.6936 25.6586 21.6936 25.4526 21.8995L24.4227 22.9294C24.2168 23.1354 24.2168 23.4693 24.4227 23.6752C24.5257 23.7782 24.6607 23.8297 24.7956 23.8297C24.9306 23.8297 25.0656 23.7782 25.1685 23.6752L26.1984 22.6453C26.4043 22.4394 26.4043 22.1055 26.1984 21.8995Z" fill="white"/>
<path d="M26.237 29.8887L25.1727 28.8243C24.9667 28.6185 24.6328 28.6185 24.4268 28.8243C24.2209 29.0303 24.2209 29.3642 24.4268 29.5702L25.4912 30.6345C25.5942 30.7375 25.7292 30.789 25.8641 30.789C25.9991 30.789 26.1341 30.7375 26.237 30.6345C26.4429 30.4286 26.4429 30.0947 26.237 29.8887Z" fill="white"/>
<path d="M30.8907 6H21.0821C19.919 6 18.9727 6.94627 18.9727 8.10937V8.32031H10.1133C9.41546 8.32031 8.84772 8.8881 8.84772 9.58594V17.918C8.84772 18.6158 9.41546 19.1836 10.1133 19.1836H10.6582V20.8008C10.6582 21.0141 10.7868 21.2064 10.9838 21.288C11.049 21.315 11.1175 21.3281 11.1855 21.3281C11.3227 21.3281 11.4576 21.2746 11.5585 21.1737L13.5486 19.1836H24.0236C24.7215 19.1836 25.2892 18.6158 25.2892 17.918V16.3359H30.8907C32.0538 16.3359 33.0001 15.3897 33.0001 14.2266V8.10937C33 6.94627 32.0538 6 30.8907 6ZM24.2346 17.918C24.2346 18.0343 24.1399 18.1289 24.0236 18.1289H13.3301C13.1903 18.1289 13.0561 18.1845 12.9573 18.2834L11.713 19.5277V18.6562C11.713 18.365 11.4769 18.1289 11.1856 18.1289H10.1133C9.99701 18.1289 9.9024 18.0343 9.9024 17.918V9.58594C9.9024 9.4696 9.99701 9.375 10.1133 9.375H18.9727V14.2266C18.9727 15.3897 19.919 16.3359 21.0821 16.3359H24.2346V17.918V17.918ZM31.9454 14.2266C31.9454 14.8081 31.4722 15.2812 30.8907 15.2812H21.0821C20.5005 15.2812 20.0274 14.8081 20.0274 14.2266V8.10937C20.0274 7.52782 20.5005 7.05469 21.0821 7.05469H30.8907C31.4722 7.05469 31.9454 7.52782 31.9454 8.10937V14.2266Z" fill="white"/>
<path d="M28.1049 10.7111L24.4958 8.62732C24.3326 8.53308 24.1316 8.53308 23.9684 8.62732C23.8053 8.7215 23.7048 8.89563 23.7048 9.084V13.2514C23.7048 13.4398 23.8053 13.6139 23.9684 13.7081C24.05 13.7553 24.141 13.7788 24.2321 13.7788C24.3232 13.7788 24.4142 13.7553 24.4958 13.7081L28.1049 11.6244C28.2681 11.5302 28.3686 11.3561 28.3686 11.1677C28.3686 10.9793 28.2681 10.8052 28.1049 10.7111ZM24.7595 12.3381V9.99741L26.7866 11.1677L24.7595 12.3381Z" fill="white"/>
<path d="M17.3122 11.5371H12.0388C11.7475 11.5371 11.5114 11.7733 11.5114 12.0645C11.5114 12.3557 11.7475 12.5918 12.0388 12.5918H17.3122C17.6034 12.5918 17.8395 12.3557 17.8395 12.0645C17.8395 11.7733 17.6034 11.5371 17.3122 11.5371Z" fill="white"/>
<path d="M17.685 14.6447C17.5869 14.5466 17.4508 14.4902 17.3121 14.4902C17.1734 14.4902 17.0374 14.5466 16.9393 14.6447C16.8412 14.7428 16.7848 14.8789 16.7848 15.0176C16.7848 15.1563 16.8412 15.2923 16.9393 15.3904C17.0374 15.4884 17.1734 15.5449 17.3121 15.5449C17.4514 15.5449 17.5869 15.4885 17.685 15.3904C17.7831 15.2923 17.8395 15.1563 17.8395 15.0176C17.8395 14.8789 17.7831 14.7428 17.685 14.6447Z" fill="white"/>
<path d="M15.3341 14.4902H12.0388C11.7475 14.4902 11.5114 14.7264 11.5114 15.0176C11.5114 15.3088 11.7475 15.5449 12.0388 15.5449H15.3341C15.6253 15.5449 15.8614 15.3088 15.8614 15.0176C15.8614 14.7264 15.6253 14.4902 15.3341 14.4902Z" fill="white"/>
</svg>