<svg xmlns="http://www.w3.org/2000/svg" width="40" height="40" viewBox="0 0 40 40" fill="none">
<circle cx="20" cy="20" r="20" fill="#5956E9"/>
<path d="M20.5 36C28.5081 36 35 29.5081 35 21.5C35 13.4919 28.5081 7 20.5 7C12.4919 7 6 13.4919 6 21.5C6 29.5081 12.4919 36 20.5 36Z" fill="#5956E9"/>
<path d="M26.19 24.4367C28.9707 21.656 32.8334 19.1936 34.7331 16.4404C35.1901 15.778 34.87 14.8602 34.094 14.6466C33.0879 14.3698 31.438 14.0893 28.882 14.0893C23.8346 14.0893 8.27141 15.0617 6.00006 9.69629C6.00006 9.69629 7.34607 15.5195 17.1887 16.0242C27.0313 16.5289 26.483 15.859 29.5145 16.4448C32.3626 16.9952 31.1955 18.7582 29.9756 19.978C28.7558 21.198 26.7788 22.8383 26.19 24.4367Z" fill="white"/>
<path d="M22.9933 30.2416C24.1083 30.2416 25.0121 29.3377 25.0121 28.2228C25.0121 27.1079 24.1083 26.2041 22.9933 26.2041C21.8784 26.2041 20.9746 27.1079 20.9746 28.2228C20.9746 29.3377 21.8784 30.2416 22.9933 30.2416Z" fill="white"/>
<path d="M13.4874 30.2416C14.6023 30.2416 15.5061 29.3377 15.5061 28.2228C15.5061 27.1079 14.6023 26.2041 13.4874 26.2041C12.3724 26.2041 11.4686 27.1079 11.4686 28.2228C11.4686 29.3377 12.3724 30.2416 13.4874 30.2416Z" fill="white"/>
</svg>