<svg xmlns="http://www.w3.org/2000/svg" width="40" height="40" viewBox="0 0 40 40" fill="none">
<circle cx="20" cy="20" r="20" fill="#5956E9"/>
<path d="M30.6948 13.5843C30.4861 13.3504 30.2542 13.1383 30.0026 12.9513C30.1059 12.1419 30.0345 11.3197 29.7932 10.5402C29.5519 9.76062 29.1463 9.04187 28.6038 8.43233C27.294 6.95614 25.0614 6.20801 21.9674 6.20801H14.459C13.9165 6.20945 13.3923 6.4037 12.9798 6.75604C12.5674 7.10838 12.2937 7.59587 12.2075 8.13143L9.07811 27.9557C9.03384 28.2214 9.04804 28.4935 9.11974 28.7532C9.19144 29.0129 9.3189 29.2538 9.49325 29.4591C9.6676 29.6645 9.88463 29.8293 10.1292 29.9422C10.3738 30.0551 10.6401 30.1133 10.9095 30.1127H14.1286L14.0295 30.7417C13.9894 30.9947 14.0047 31.2533 14.0742 31.4999C14.1437 31.7464 14.2658 31.9749 14.4321 32.1698C14.5984 32.3646 14.805 32.521 15.0376 32.6283C15.2702 32.7356 15.5233 32.7912 15.7794 32.7913H19.6876C20.1939 32.7954 20.685 32.6188 21.0728 32.2933C21.4606 31.9678 21.7196 31.5147 21.8034 31.0154L22.5775 26.1443L22.5905 26.0783H22.9516C27.8238 26.0783 30.8671 23.6698 31.7545 19.115C32.0252 18.1747 32.0703 17.1839 31.8862 16.2229C31.702 15.2619 31.2939 14.3579 30.6948 13.5843V13.5843ZM15.4762 21.5588L14.6128 27.0389L14.5085 27.696H11.5656L14.5758 8.62467H21.9674C24.3062 8.62467 25.9759 9.1132 26.7913 10.0312C27.1762 10.4787 27.4446 11.0144 27.5727 11.5905C27.7009 12.1667 27.6848 12.7656 27.5258 13.334L27.5034 13.4697C27.4887 13.5621 27.4753 13.6523 27.4509 13.7672C27.2179 15.4938 26.355 17.0734 25.0281 18.2024C23.5384 19.2384 21.743 19.742 19.9319 19.6319H17.7288C17.1848 19.63 16.6582 19.8235 16.2448 20.1772C15.8314 20.5308 15.5586 21.0211 15.4762 21.5588V21.5588ZM29.3826 18.6524C28.7171 22.0697 26.6733 23.6616 22.9515 23.6616H22.3674C21.8606 23.6576 21.3691 23.8347 20.9812 24.1609C20.5933 24.4871 20.3346 24.9411 20.2516 25.441L19.4669 30.3641L16.5334 30.3747L17.1112 26.7087L17.8497 22.0532H19.9272C20.1166 22.0532 20.2841 22.0248 20.4686 22.0183C20.9022 22.0033 21.3345 21.9866 21.7406 21.9363C21.9886 21.9054 22.2162 21.849 22.4539 21.8049C22.7832 21.7441 23.1127 21.6839 23.4219 21.598C23.6519 21.5339 23.8666 21.4515 24.0854 21.3737C24.3745 21.2711 24.6591 21.1634 24.9283 21.0369C25.1313 20.9414 25.3247 20.8351 25.5162 20.7261C25.7712 20.5817 26.0182 20.4237 26.2562 20.2527C26.4281 20.1288 26.5968 20.0015 26.7576 19.8649C26.9856 19.6683 27.2022 19.459 27.4064 19.2378C27.5429 19.0922 27.6828 18.9508 27.8092 18.7941C28.0189 18.5269 28.2126 18.2474 28.3892 17.9572C28.4816 17.8095 28.584 17.6729 28.669 17.5175C28.9138 17.0696 29.1242 16.6038 29.2983 16.124C29.3088 16.0952 29.3237 16.0708 29.334 16.0418C29.3388 16.0283 29.3459 16.017 29.3507 16.0033C29.5902 16.8688 29.6011 17.7815 29.3826 18.6524V18.6524Z" fill="white"/>
</svg>