<svg xmlns="http://www.w3.org/2000/svg" width="40" height="40" viewBox="0 0 40 40" fill="none">
<circle cx="20" cy="20" r="20" fill="#5956E9"/>
<path d="M20.5 28.9587C12.3691 28.9587 6 25.243 6 20.5003C6 15.7576 12.3691 12.042 20.5 12.042C28.6309 12.042 35 15.7576 35 20.5003C35 25.243 28.6309 28.9587 20.5 28.9587ZM20.5 13.2503C13.1715 13.2503 7.20833 16.502 7.20833 20.5003C7.20833 24.4987 13.1715 27.7503 20.5 27.7503C27.8285 27.7503 33.7917 24.4987 33.7917 20.5003C33.7917 16.502 27.8285 13.2503 20.5 13.2503Z" fill="white"/>
<path d="M12.647 25.3337C12.6144 25.3337 12.5794 25.3313 12.5467 25.3252C12.2181 25.2708 11.9945 24.9591 12.0501 24.6304L12.4489 22.2379C12.4513 22.221 12.4537 22.2053 12.4573 22.1896L13.2584 17.3816C13.3068 17.0892 13.5593 16.8753 13.8541 16.8753H15.5108C16.1778 16.8753 16.8049 17.1702 17.2314 17.6837C17.6592 18.1973 17.8332 18.8679 17.7099 19.5252L17.4755 20.777C17.2435 22.018 16.1584 22.917 14.8981 22.917H13.5605L13.2415 24.8286C13.192 25.1246 12.9358 25.3337 12.647 25.3337ZM13.7623 21.7087H14.8981C15.5772 21.7087 16.1621 21.2241 16.2877 20.5547L16.5221 19.3041C16.5789 19.002 16.4968 18.6927 16.301 18.4558C16.1065 18.219 15.8177 18.0837 15.5108 18.0837H14.3665L13.7623 21.7087ZM25.0324 25.3337C24.9998 25.3337 24.9648 25.3313 24.9321 25.3252C24.6035 25.2708 24.3799 24.9591 24.4355 24.6304L24.8343 22.2379C24.8367 22.221 24.8391 22.2053 24.8427 22.1896L25.6439 17.3816C25.6922 17.0892 25.9447 16.8753 26.2396 16.8753H27.8962C28.5632 16.8753 29.1903 17.1702 29.6168 17.6837C30.0446 18.1973 30.2186 18.8679 30.0953 19.5252L29.8609 20.777C29.6289 22.018 28.5439 22.917 27.2836 22.917H25.9459L25.6269 24.8286C25.5774 25.1246 25.3212 25.3337 25.0324 25.3337ZM26.1477 21.7087H27.2836C27.9626 21.7087 28.5475 21.2241 28.6731 20.5547L28.9076 19.3041C28.9643 19.002 28.8822 18.6927 28.6864 18.4558C28.4919 18.219 28.2031 18.0837 27.8962 18.0837H26.7519L26.1477 21.7087ZM19.2929 22.917C19.2602 22.917 19.2252 22.9146 19.1926 22.9085C18.8639 22.8542 18.6404 22.5424 18.6959 22.2138L19.9043 14.9638C19.9599 14.6339 20.2776 14.4091 20.5991 14.4671C20.9277 14.5215 21.1513 14.8333 21.0957 15.1619L19.8874 22.4119C19.8378 22.708 19.5816 22.917 19.2929 22.917Z" fill="white"/>
<path d="M22.9179 22.917C22.8901 22.917 22.8599 22.9146 22.8321 22.9109C22.5022 22.8638 22.2714 22.5581 22.3185 22.2282L22.7523 19.1857C22.7777 19.0129 22.6992 18.8944 22.6508 18.8377C22.6013 18.7821 22.4938 18.6878 22.3222 18.6878H20.1979C19.8644 18.6878 19.5938 18.4172 19.5938 18.0837C19.5938 17.7502 19.8644 17.4795 20.1979 17.4795H22.3222C22.7995 17.4795 23.2526 17.6861 23.5631 18.0462C23.8761 18.4075 24.0163 18.8836 23.9486 19.3572L23.5148 22.3986C23.4713 22.6995 23.2127 22.917 22.9179 22.917Z" fill="white"/>
</svg>