<svg xmlns="http://www.w3.org/2000/svg" width="40" height="40" viewBox="0 0 40 40" fill="none">
<circle cx="20" cy="20" r="20" fill="#5956E9"/>
<path d="M9.40579 13.0362H9.81157V13.442C9.81157 13.6662 9.99325 13.8478 10.2174 13.8478C10.4415 13.8478 10.6231 13.6661 10.6231 13.442V13.0362H11.0289C11.253 13.0362 11.4347 12.8545 11.4347 12.6304C11.4347 12.4063 11.253 12.2247 11.0289 12.2247H10.6231V11.8189C10.6231 11.5947 10.4415 11.4131 10.2174 11.4131C9.99325 11.4131 9.81157 11.5948 9.81157 11.8189V12.2247H9.40579C9.18168 12.2247 9 12.4063 9 12.6304C9 12.8545 9.18168 13.0362 9.40579 13.0362Z" fill="white"/>
<path d="M25.4291 23.6895H25.0234V23.2837C25.0234 23.0596 24.8417 22.8779 24.6176 22.8779C24.3935 22.8779 24.2118 23.0596 24.2118 23.2837V23.6895H23.806C23.5818 23.6895 23.4002 23.8712 23.4002 24.0953C23.4002 24.3194 23.5819 24.5011 23.806 24.5011H24.2118V24.9069C24.2118 25.131 24.3935 25.3126 24.6176 25.3126C24.8417 25.3126 25.0234 25.131 25.0234 24.9069V24.5011H25.4291C25.6533 24.5011 25.8349 24.3194 25.8349 24.0953C25.8349 23.8712 25.6532 23.6895 25.4291 23.6895Z" fill="white"/>
<path d="M29.4642 7.81157H29.0584V7.40579C29.0584 7.18163 28.8768 7 28.6527 7C28.4286 7 28.2469 7.18168 28.2469 7.40579V7.81157H27.8411C27.6169 7.81157 27.4353 7.99325 27.4353 8.21736C27.4353 8.44146 27.617 8.62314 27.8411 8.62314H28.2469V9.02893C28.2469 9.25309 28.4286 9.43471 28.6527 9.43471C28.8768 9.43471 29.0584 9.25303 29.0584 9.02893V8.62314H29.4642C29.6884 8.62314 29.87 8.44146 29.87 8.21736C29.87 7.99325 29.6883 7.81157 29.4642 7.81157Z" fill="white"/>
<path d="M19.2406 23.0542C19.1281 23.0527 19.0159 23.0636 18.9065 23.0864V20.0042C19.511 20.2103 20.143 20.3146 20.7926 20.3146C24.0243 20.3146 26.6535 17.6854 26.6535 14.4537C26.6535 11.2219 24.0243 8.59277 20.7926 8.59277C17.5609 8.59277 14.9317 11.222 14.9317 14.4537C14.9317 15.5656 15.244 16.6426 15.8344 17.5777V20.9579C15.5979 20.831 15.331 20.7681 15.0543 20.7783C14.3228 20.8043 13.7136 21.3696 13.5948 22.0857C13.3532 21.9511 13.0789 21.8846 12.7937 21.8945C12.2015 21.9156 11.6893 22.2902 11.4528 22.8122C11.1845 22.6287 10.8659 22.5355 10.5332 22.5477C9.71689 22.5768 9.0528 23.2776 9.0528 24.1099V25.6492C9.0528 25.8733 9.23448 26.055 9.45858 26.055C9.68268 26.055 9.86437 25.8733 9.86437 25.6492V24.1099C9.86437 23.7094 10.1774 23.3725 10.562 23.3587C10.9735 23.3444 11.3133 23.6719 11.3133 24.0827C11.3133 24.3069 11.495 24.4885 11.7191 24.4885C11.9432 24.4885 12.1249 24.3068 12.1249 24.0827V23.4567C12.1249 23.0562 12.4378 22.7192 12.8225 22.7056C13.0216 22.6981 13.2097 22.7705 13.3523 22.9082C13.4951 23.0461 13.5738 23.2312 13.5738 23.4296C13.5738 23.6538 13.7555 23.8354 13.9796 23.8354C14.2037 23.8354 14.3853 23.6537 14.3853 23.4296V22.3404C14.3853 21.94 14.6983 21.603 15.083 21.5894C15.4965 21.5755 15.8343 21.9039 15.8343 22.3133C15.8343 22.5375 16.0159 22.7191 16.2401 22.7191C16.4642 22.7191 16.6458 22.5374 16.6458 22.3133C16.6458 21.6744 16.6458 18.3489 16.6458 16.8367C16.6458 16.4277 16.9832 16.0987 17.3971 16.1127C17.7818 16.1264 18.0948 16.4633 18.0948 16.8638V23.236C18.0948 23.7124 18.5575 24.0382 19.0051 23.8984C19.0774 23.8758 19.1534 23.8654 19.2302 23.8658C19.6179 23.8706 19.9454 24.2149 19.9454 24.6176V27.9153C19.9454 28.8014 19.6527 29.6799 19.1212 30.389C18.7194 30.9421 18.4839 31.189 18.2114 31.7016H11.172C11.1684 31.693 11.1649 31.6841 11.1613 31.6757L10.1984 29.3995C9.80573 28.4839 9.87177 27.6517 9.86448 27.566C9.86448 27.3419 9.68279 27.1602 9.45869 27.1602C9.23459 27.1602 9.0529 27.3419 9.0529 27.566C9.06436 27.6967 8.97514 28.6062 9.45177 29.7175L10.3575 31.8585C10.0313 32.0527 9.81157 32.4078 9.81157 32.8143V33.5552C9.81157 34.1688 10.3107 34.668 10.9243 34.668H18.3039C18.9175 34.668 19.4167 34.1688 19.4167 33.5552V32.8143C19.4167 32.4654 19.255 32.1539 19.0029 31.9496C19.2032 31.6042 19.3315 31.4733 19.771 30.8756C20.4069 30.0271 20.7572 28.9757 20.7572 27.9152V24.6176C20.7571 23.7804 20.0627 23.0645 19.2406 23.0542V23.0542ZM17.4261 15.3016C16.8138 15.2801 16.2862 15.6143 16.0196 16.1037C15.8376 15.5769 15.7433 15.0206 15.7433 14.4537C15.7433 11.6695 18.0084 9.4044 20.7926 9.4044C23.5768 9.4044 25.8419 11.6695 25.8419 14.4537C25.8419 17.2379 23.5768 19.503 20.7926 19.503C20.1384 19.503 19.5052 19.3804 18.9065 19.1386V17.0647C18.9357 17.1074 18.9734 17.1452 19.0193 17.1752C19.5378 17.5144 19.889 17.6106 20.3504 17.6334V18.0515C20.3504 18.2756 20.5321 18.4573 20.7562 18.4573C20.9803 18.4573 21.162 18.2756 21.162 18.0515V17.5912C22.0292 17.401 22.5364 16.6771 22.6502 16C22.799 15.1146 22.336 14.3448 21.4705 14.0389C21.369 14.003 21.2655 13.9657 21.162 13.9269V12.0671C21.426 12.1407 21.5825 12.2732 21.5973 12.2861C21.7622 12.4353 22.0168 12.4241 22.1679 12.2604C22.3199 12.0956 22.3095 11.8388 22.1448 11.6869C22.1226 11.6666 21.759 11.3394 21.162 11.2368V10.856C21.162 10.6318 20.9803 10.4502 20.7562 10.4502C20.5321 10.4502 20.3504 10.6319 20.3504 10.856V11.2536C20.2825 11.2677 20.213 11.285 20.1421 11.3064C19.5717 11.4782 19.1456 11.9663 19.0299 12.5801C18.8393 13.5916 19.4191 14.0642 20.3505 14.4738V16.8212C20.0172 16.8005 19.8159 16.7264 19.4637 16.4961C19.2761 16.3734 19.0247 16.4259 18.9019 16.6135C18.8975 16.6204 18.8937 16.6275 18.8897 16.6346C18.7812 15.9064 18.1663 15.3279 17.4261 15.3016V15.3016ZM21.162 14.7904C21.7127 14.9868 21.9309 15.3839 21.8499 15.8655C21.7917 16.2118 21.558 16.5791 21.162 16.7418V14.7904ZM20.3504 13.5733C19.9716 13.371 19.7377 13.206 19.8273 12.7303C19.8726 12.4901 20.034 12.2004 20.3504 12.0925V13.5733ZM18.6051 33.5552C18.6051 33.7212 18.47 33.8563 18.3039 33.8563H10.9243C10.7582 33.8563 10.6232 33.7212 10.6232 33.5552V32.8143C10.6232 32.6477 10.7588 32.5132 10.9243 32.5132H18.3039C18.4675 32.5132 18.6051 32.6464 18.6051 32.8143V33.5552Z" fill="white"/>
<path d="M20.7926 7C16.6823 7 13.3384 10.3439 13.3384 14.4542C13.3384 15.8692 13.7369 17.2463 14.4906 18.4365C14.6105 18.6258 14.8612 18.6822 15.0505 18.5622C15.2399 18.4422 15.2961 18.1916 15.1762 18.0023C14.5049 16.9422 14.15 15.7153 14.15 14.4543C14.15 10.7915 17.1299 7.81163 20.7926 7.81163C24.4554 7.81163 27.4352 10.7915 27.4352 14.4543C27.4352 18.117 24.4554 21.0969 20.7926 21.0969C20.6501 21.0969 20.5057 21.0923 20.3635 21.0832C20.1385 21.0682 19.9469 21.2387 19.9326 21.4623C19.9183 21.6859 20.088 21.8789 20.3116 21.8931C20.4711 21.9033 20.6329 21.9085 20.7926 21.9085C24.9029 21.9085 28.2468 18.5646 28.2468 14.4543C28.2468 10.344 24.9029 7 20.7926 7V7Z" fill="white"/>
</svg>