<svg xmlns="http://www.w3.org/2000/svg" width="40" height="40" viewBox="0 0 40 40" fill="none">
<circle cx="20" cy="20" r="20" fill="#5956E9"/>
<path d="M32.042 11.6904C30.9615 9.99826 28.6382 9.29533 25.5077 9.69878C25.3971 9.71175 25.2799 9.73132 25.1693 9.74429C25.1238 9.64031 25.0783 9.53608 25.0262 9.4321C23.6791 6.5749 21.8372 5 19.8327 5C17.8282 5 15.98 6.5749 14.6392 9.4321C14.5937 9.53608 14.5416 9.64031 14.4961 9.74429C14.3789 9.72497 14.2683 9.71175 14.1577 9.69878C11.0209 9.28872 8.70389 9.99826 7.62345 11.6904C6.54326 13.3825 6.87502 15.7838 8.55415 18.4521C8.77558 18.8037 9.01633 19.1551 9.27665 19.5001C9.01633 19.8514 8.77558 20.1964 8.55415 20.5477C6.87502 23.216 6.54326 25.624 7.62345 27.3097C8.50204 28.6894 10.2074 29.4119 12.5045 29.4119C13.0552 29.4089 13.605 29.372 14.1511 29.3011C14.2617 29.2881 14.3789 29.2685 14.4895 29.2556C14.5352 29.3598 14.5807 29.4638 14.6329 29.568C15.98 32.4249 17.8218 34.0001 19.8261 34.0001C21.8306 34.0001 23.6791 32.4249 25.0196 29.568C25.0651 29.4638 25.1172 29.3598 25.1627 29.2556C25.2799 29.2751 25.3905 29.2881 25.5013 29.3011C26.0469 29.375 26.597 29.4119 27.1477 29.4119C29.4451 29.4119 31.1502 28.6894 32.0287 27.3097C33.1092 25.6176 32.7772 23.216 31.0983 20.5477C30.8769 20.1964 30.6361 19.845 30.3758 19.5001C30.6361 19.1485 30.8769 18.8037 31.0983 18.4521C32.7968 15.7775 33.1288 13.3758 32.042 11.6904V11.6904ZM15.8173 9.98529C16.917 7.64238 18.3814 6.30162 19.8327 6.30162C21.2841 6.30162 22.7484 7.64238 23.8481 9.98529C23.8489 9.99012 23.8512 9.9947 23.8548 9.99826C22.4723 10.3308 21.1239 10.7904 19.8261 11.3713C18.5298 10.7876 17.1809 10.3277 15.7977 9.99826C15.8107 9.99826 15.8107 9.99165 15.8173 9.98529V9.98529ZM25.6966 19.5001C25.6968 20.5413 25.6404 21.5821 25.5273 22.6173C24.7161 23.2719 23.8687 23.8803 22.9891 24.4396C21.974 25.0914 20.9175 25.6764 19.8261 26.1904C18.737 25.6723 17.6805 25.0876 16.6633 24.4396C15.7847 23.8788 14.9374 23.2704 14.1252 22.6173C13.8994 20.5452 13.8994 18.4547 14.1252 16.3825C15.8793 14.9729 17.7928 13.7737 19.8261 12.8097C20.9154 13.3275 21.9717 13.9123 22.9891 14.5603C23.8677 15.1211 24.715 15.7294 25.5273 16.3825C25.6404 17.418 25.6968 18.4585 25.6966 19.5001V19.5001ZM26.9395 17.6061C27.5768 18.1997 28.1768 18.8322 28.7358 19.5001C28.1768 20.1676 27.5768 20.8001 26.9395 21.3937C26.9786 20.7691 26.9982 20.1379 26.9982 19.5001C26.9982 18.8622 26.9786 18.231 26.9395 17.6061ZM25.2603 24.4658C25.0549 25.5925 24.7567 26.7004 24.3688 27.7783C23.358 27.55 22.366 27.2454 21.4013 26.8671C22.169 26.4637 22.937 26.0211 23.6984 25.5396C24.2323 25.1946 24.7529 24.8367 25.2603 24.4658V24.4658ZM18.2642 26.8671C17.3012 27.2503 16.3087 27.5551 15.2966 27.7783C14.9087 26.7004 14.6105 25.5925 14.4051 24.4658C14.9061 24.8367 15.4268 25.1946 15.967 25.533C16.7284 26.0211 17.4964 26.4637 18.2642 26.8671ZM12.7259 21.3937C12.0886 20.8001 11.4889 20.1676 10.9296 19.5001C11.4889 18.8322 12.0886 18.1997 12.7259 17.6061C12.6868 18.231 12.6672 18.8622 12.6672 19.5001C12.6672 20.1379 12.6868 20.7691 12.7259 21.3937ZM14.4051 14.5343C14.6105 13.4074 14.9087 12.2995 15.2966 11.2218C16.3074 11.4499 17.2996 11.7544 18.2642 12.133C17.4964 12.5364 16.7284 12.979 15.967 13.4605C15.4331 13.8055 14.9125 14.1634 14.4051 14.5343ZM23.692 13.4605C22.937 12.979 22.169 12.5298 21.3946 12.133C22.3576 11.7498 23.3501 11.445 24.3624 11.2218C24.7501 12.2995 25.0483 13.4074 25.254 14.5343C24.7529 14.1634 24.2323 13.8055 23.692 13.4605ZM9.65417 17.7558C8.27426 15.569 7.93589 13.6102 8.71686 12.3867C9.34173 11.4105 10.6955 10.8832 12.5241 10.8832C13.0137 10.8852 13.5028 10.918 13.9884 10.9808H14.0014C13.4749 12.5117 13.1085 14.093 12.9082 15.6992C11.9053 16.5358 10.9715 17.4523 10.1161 18.4392C9.95339 18.218 9.7973 17.9902 9.65417 17.7558ZM13.982 28.0127C13.4965 28.0757 13.0074 28.1083 12.5177 28.1103C10.6889 28.1103 9.33512 27.5896 8.7105 26.6068C7.92953 25.3833 8.2679 23.4245 9.64756 21.2377C9.79069 21.0099 9.94704 20.7755 10.1097 20.5477C10.9649 21.5348 11.8987 22.4511 12.9016 23.2877C13.1022 24.8941 13.4685 26.4754 13.995 28.0061C13.995 28.0127 13.9884 28.0127 13.982 28.0127ZM23.8481 29.0148C22.7484 31.3577 21.2841 32.6985 19.8327 32.6985C18.3814 32.6985 16.917 31.3577 15.8173 29.0148C15.8165 29.01 15.8142 29.0054 15.8107 29.0018C17.1931 28.6693 18.5415 28.2097 19.8393 27.6285C21.1356 28.2125 22.4845 28.6724 23.8677 29.0018C23.8548 29.0018 23.8548 29.0082 23.8481 29.0148ZM30.0112 21.2443C31.3912 23.4308 31.7295 25.3899 30.9486 26.6134C30.1676 27.8367 28.2477 28.351 25.6834 28.0127H25.6704C26.1969 26.4817 26.5635 24.9005 26.7638 23.2943C27.7667 22.4577 28.7005 21.5412 29.5557 20.5543C29.712 20.7821 29.8681 21.0099 30.0112 21.2443V21.2443ZM26.7572 15.7058C26.5569 14.0994 26.1905 12.5181 25.664 10.9874H25.677C28.2411 10.6554 30.161 11.1631 30.9419 12.3867C31.7229 13.6102 31.3845 15.569 30.0049 17.7558C29.8618 17.9836 29.7054 18.218 29.5427 18.4458C28.6913 17.4571 27.7596 16.5407 26.7572 15.7058Z" fill="white"/>
<path d="M19.8327 16.9229C18.4093 16.9229 17.2554 18.0768 17.2554 19.5002C17.2554 20.9235 18.4093 22.0772 19.8327 22.0772C21.2561 22.0772 22.41 20.9235 22.41 19.5002C22.409 18.077 21.2556 16.9239 19.8327 16.9229ZM19.8327 20.7756C19.1283 20.7756 18.557 20.2046 18.557 19.5002C18.557 18.7957 19.1283 18.2245 19.8327 18.2245C20.5372 18.2245 21.1084 18.7957 21.1084 19.5002C21.1071 20.2041 20.5367 20.7746 19.8327 20.7756Z" fill="white"/>
</svg>