<svg xmlns="http://www.w3.org/2000/svg" width="40" height="40" viewBox="0 0 40 40" fill="none">
<circle cx="20" cy="20" r="20" fill="#5956E9"/>
<path d="M32.65 19.7H32.2V10.25C32.1985 9.008 31.192 8.00146 29.95 8H11.05C9.808 8.00146 8.80146 9.008 8.8 10.25V17H8.35C7.60441 17 7 17.6044 7 18.35V30.05C7 30.7956 7.60441 31.4 8.35 31.4H25.45C25.6985 31.4 25.9 31.1985 25.9 30.95C25.8985 29.708 24.892 28.7015 23.65 28.7H22.3V26H27.7V30.05C27.7 30.7956 28.3044 31.4 29.05 31.4H32.65C33.3956 31.4 34 30.7956 34 30.05V21.05C34 20.3044 33.3956 19.7 32.65 19.7ZM16.9 30.05C16.9 30.2985 16.6985 30.5 16.45 30.5H8.35C8.10149 30.5 7.9 30.2985 7.9 30.05V29.6H16.9V30.05ZM16.9 28.7H7.9V18.35C7.9 18.1015 8.10149 17.9 8.35 17.9H16.45C16.6985 17.9 16.9 18.1015 16.9 18.35V28.7ZM23.65 29.6C24.2219 29.6007 24.7316 29.961 24.923 30.5H17.7172C17.7705 30.3559 17.7985 30.2037 17.8 30.05V29.6H23.65ZM17.8 28.7V26H18.7V28.7H17.8ZM19.6 28.7V26H21.4V28.7H19.6ZM27.7 25.1H17.8V22.4H27.7V25.1ZM27.7 21.05V21.5H17.8V18.35C17.7985 18.1365 17.7457 17.9264 17.6461 17.7375C17.6529 17.7312 17.6619 17.7295 17.6682 17.7227L22.1231 13.2677C22.2958 13.0889 22.2909 12.804 22.1121 12.6314C21.9377 12.463 21.6613 12.463 21.4868 12.6314L17.0318 17.0864C17.021 17.0976 17.0166 17.112 17.0071 17.1237C16.8325 17.0427 16.6424 17.0006 16.45 17H9.7V10.25C9.7 9.50441 10.3044 8.9 11.05 8.9H29.95C30.6956 8.9 31.3 9.50441 31.3 10.25V19.7H29.05C28.3044 19.7 27.7 20.3044 27.7 21.05ZM33.1 30.05C33.1 30.2985 32.8985 30.5 32.65 30.5H29.05C28.8015 30.5 28.6 30.2985 28.6 30.05V29.6H33.1V30.05ZM33.1 28.7H28.6V21.05C28.6 20.8015 28.8015 20.6 29.05 20.6H32.65C32.8985 20.6 33.1 20.8015 33.1 21.05V28.7Z" fill="white"/>
<path d="M10.377 21.4775C10.2013 21.3018 9.91646 21.3018 9.74073 21.4775L7.83183 23.3864C7.65307 23.559 7.64812 23.8439 7.82081 24.0227C7.99349 24.2014 8.27834 24.2064 8.45711 24.0337C8.46088 24.0301 8.46453 24.0264 8.46813 24.0227L10.377 22.1138C10.4574 21.9745 10.2959 21.7099 10.377 21.4775Z" fill="white"/>
<path d="M13.066 21.4759C12.8916 21.3075 12.6151 21.3075 12.4407 21.4759L10.5318 23.3848C10.353 23.5575 10.3481 23.8424 10.5208 24.0211C10.6934 24.1999 10.9783 24.2048 11.1571 24.0321C11.1608 24.0285 11.1645 24.0248 11.1681 24.0211L13.077 22.1122C13.2496 21.9335 13.2447 21.6485 13.066 21.4759Z" fill="white"/>
<path d="M22.8572 11.6312C22.6828 11.4628 22.4063 11.4628 22.2319 11.6312L17.7769 16.0862C17.5981 16.2588 17.5932 16.5437 17.7658 16.7225C17.9385 16.9013 18.2234 16.9062 18.4021 16.7336C18.4059 16.73 18.4096 16.7263 18.4132 16.7225L22.8682 12.2675C23.0409 12.0887 23.0359 11.8038 22.8572 11.6312Z" fill="white"/>
<path d="M29.7934 22.6947C29.6191 22.5262 29.3425 22.5262 29.1682 22.6947L27.8956 23.9673C27.7168 24.14 27.7118 24.4248 27.8845 24.6036C28.0572 24.7824 28.3421 24.7873 28.5208 24.6146C28.5245 24.611 28.5283 24.6073 28.5319 24.6036L29.8045 23.331C29.9771 23.1522 29.9722 22.8674 29.7934 22.6947Z" fill="white"/>
<path d="M18.509 22.2988H18.5045C18.256 22.3001 18.0555 22.5026 18.0568 22.7511C18.058 22.9996 18.2605 23.2001 18.509 23.1988C18.7575 23.1988 18.959 22.9973 18.959 22.7488C18.959 22.5003 18.7575 22.2988 18.509 22.2988Z" fill="white"/>
<path d="M19.4001 8.79883H17.6001C17.3516 8.79883 17.1501 9.00032 17.1501 9.24883C17.1501 9.49734 17.3516 9.69883 17.6001 9.69883H19.4001C19.6486 9.69883 19.8501 9.49734 19.8501 9.24883C19.8501 9.00032 19.6486 8.79883 19.4001 8.79883Z" fill="white"/>
</svg>