<svg xmlns="http://www.w3.org/2000/svg" width="40" height="40" viewBox="0 0 40 40" fill="none">
<circle cx="20" cy="20" r="20" fill="#5956E9"/>
<path d="M32.4997 28.3513L27.6258 23.6208C27.3101 23.3143 26.8938 23.1498 26.4514 23.1558C26.3032 23.158 26.1586 23.1799 26.02 23.2194L23.8229 21.0871C24.0445 20.7524 24.2463 20.4033 24.4265 20.0396C24.4529 19.9864 24.473 19.9317 24.4874 19.8764H25.2114C25.6773 19.8764 26.055 19.4985 26.055 19.0325C26.055 18.5664 25.6772 18.1886 25.2113 18.1886L22.4175 18.1887V16.5498H24.3021C24.7681 16.5498 25.1458 16.172 25.1458 15.706C25.1458 15.2399 24.768 14.8621 24.3021 14.8621H22.4175V13.3203H25.2113C25.6773 13.3203 26.055 12.9425 26.055 12.4765C26.055 12.0105 25.6773 11.6326 25.2113 11.6326H24.5412C24.203 10.9034 23.7727 10.2147 23.2616 9.58578C19.8818 5.42625 13.7488 4.79259 9.59024 8.17303C7.57573 9.81059 6.31933 12.1348 6.05255 14.7175C5.78582 17.3001 6.54061 19.8321 8.17785 21.8471C9.8151 23.8619 12.1388 25.1185 14.721 25.3853C15.0613 25.4205 15.4005 25.4379 15.7379 25.4379C17.6274 25.4379 19.4558 24.8913 21.0359 23.8545L23.2037 25.9585C23.1108 26.1717 23.0633 26.4042 23.0669 26.6442C23.0735 27.0859 23.2511 27.4978 23.5669 27.8042L28.4409 32.5347C28.7611 32.8455 29.1758 33 29.5902 33C30.0212 33 30.4519 32.8326 30.775 32.4996L32.5347 30.6858C33.1685 30.0325 33.1528 28.9854 32.4997 28.3513V28.3513ZM24.6878 24.2782L24.3036 24.6742L22.3737 22.8011C22.5084 22.675 22.6392 22.5456 22.7658 22.4128L24.6878 24.2782ZM14.8944 23.7065C12.7606 23.486 10.8403 22.4477 9.48735 20.7826C8.13434 19.1175 7.5106 17.0251 7.73108 14.8909C7.95157 12.7566 8.98975 10.836 10.6545 9.48279C14.0911 6.68929 19.1592 7.213 21.9521 10.6502C22.2048 10.9612 22.433 11.29 22.6359 11.6325H21.5738C21.1078 11.6325 20.7301 12.0104 20.7301 12.4764V19.0326C20.7301 19.2564 20.819 19.4711 20.9772 19.6293C21.1355 19.7876 21.3501 19.8765 21.5739 19.8765L22.5927 19.8764C22.1171 20.664 21.5112 21.3596 20.785 21.9499C19.1202 23.3031 17.0285 23.9269 14.8944 23.7065V23.7065ZM29.5897 31.2978L24.7685 26.6186L26.4769 24.8576L31.2981 29.5368L29.5897 31.2978ZM15.313 13.5181V14.6683C15.313 14.7755 15.4036 14.8661 15.5108 14.8661H17.8864C18.9259 14.8661 19.7716 15.7121 19.7716 16.7519V17.9019C19.7716 18.9417 18.9259 19.7876 17.8864 19.7876H14.4692C14.0032 19.7876 13.6255 19.4098 13.6255 18.9438C13.6255 18.4777 14.0032 18.0999 14.4692 18.0999H17.8864C17.9936 18.0999 18.0842 18.0093 18.0842 17.9019V16.7519C18.0842 16.6446 17.9936 16.554 17.8864 16.554H15.5108C14.4713 16.554 13.6255 15.708 13.6255 14.6683V13.5182C13.6255 12.4785 14.4712 11.6326 15.5108 11.6326H18.928C19.394 11.6326 19.7717 12.0105 19.7717 12.4765C19.7717 12.9425 19.394 13.3203 18.928 13.3203H15.5108C15.4035 13.3203 15.313 13.4109 15.313 13.5181V13.5181ZM29.3131 19.8331C30.9642 19.8331 32.3075 18.4896 32.3075 16.8382V14.5739C32.3075 12.9225 30.9642 11.579 29.3131 11.579C27.6621 11.579 26.3188 12.9226 26.3188 14.5739V16.8382C26.3188 18.4896 27.6621 19.8331 29.3131 19.8331ZM28.0062 14.5739C28.0062 13.8531 28.5925 13.2668 29.3131 13.2668C30.0338 13.2668 30.62 13.8532 30.62 14.5739V16.8382C30.62 17.559 30.0337 18.1454 29.3131 18.1454C28.5925 18.1454 28.0062 17.559 28.0062 16.8382V14.5739Z" fill="white"/>
</svg>