<svg xmlns="http://www.w3.org/2000/svg" width="40" height="40" viewBox="0 0 40 40" fill="none">
<circle cx="20" cy="20" r="20" fill="#5956E9"/>
<path d="M24.4808 8.38317C24.4788 8.38374 24.1564 8.48354 23.6123 8.65199C23.5215 8.35706 23.3876 7.99473 23.1967 7.63076C22.5813 6.45682 21.6804 5.83542 20.5914 5.83383C20.5902 5.83383 20.589 5.83383 20.5877 5.83383C20.5122 5.83383 20.437 5.84097 20.3618 5.84777C20.3297 5.80925 20.2974 5.77102 20.2633 5.73454C19.7892 5.2271 19.1805 4.97992 18.4518 5.00127C17.0452 5.0416 15.645 6.05728 14.5094 7.86106C13.7099 9.1306 13.1026 10.7254 12.9299 11.9597C11.3152 12.4598 10.1854 12.8096 10.1609 12.8173C9.34588 13.0731 9.32028 13.0987 9.2134 13.8667C9.13246 14.448 7 30.94 7 30.94L24.6949 34V8.34698C24.6076 8.35253 24.5297 8.36879 24.4808 8.38317V8.38317ZM20.3948 9.64824C19.4584 9.93818 18.4361 10.2547 17.4107 10.5723C17.6994 9.46784 18.2459 8.36828 18.9174 7.64781C19.1673 7.37984 19.5167 7.08083 19.9305 6.91006C20.3198 7.72133 20.4042 8.87136 20.3948 9.64824ZM18.4788 5.93709C18.809 5.93018 19.0872 6.00262 19.3247 6.15895C18.9448 6.35617 18.5772 6.63977 18.2326 7.00941C17.3392 7.96777 16.6549 9.45578 16.382 10.8908C15.5304 11.1545 14.6974 11.4124 13.9311 11.6497C14.4145 9.38979 16.3081 5.99951 18.4788 5.93709ZM15.7421 18.8073C15.8371 20.3127 19.7972 20.6416 20.0199 24.1674C20.195 26.9414 18.5486 28.8388 16.1761 28.9886C13.3292 29.1684 11.7616 27.4885 11.7616 27.4885L12.3648 24.922C12.3648 24.922 13.9424 26.1123 15.2052 26.0325C16.0301 25.9804 16.3249 25.3095 16.295 24.8351C16.171 22.8714 12.9462 22.9871 12.7425 19.7606C12.5711 17.0451 14.3542 14.2941 18.2888 14.0456C19.8048 13.9499 20.5811 14.337 20.5811 14.337L19.6813 17.7028C19.6813 17.7028 18.6777 17.2458 17.4878 17.3209C15.7432 17.431 15.7246 18.5315 15.7421 18.8073ZM21.3298 9.35875C21.3194 8.64655 21.2344 7.65591 20.9026 6.79956C21.9697 7.00176 22.4952 8.20923 22.7169 8.92925C22.3057 9.05657 21.8372 9.20157 21.3298 9.35875Z" fill="white"/>
<path d="M25.2801 33.9302L32.6208 32.1056C32.6208 32.1056 29.4602 10.7369 29.4402 10.5903C29.4201 10.4438 29.2917 10.3627 29.1859 10.3539C29.08 10.345 27.0135 10.3136 27.0135 10.3136C27.0135 10.3136 25.7534 9.08988 25.28 8.62695V33.9302H25.2801Z" fill="white"/>
</svg>