<svg xmlns="http://www.w3.org/2000/svg" width="40" height="40" viewBox="0 0 40 40" fill="none">
<circle cx="20" cy="20" r="20" fill="#5956E9"/>
<path d="M30.561 22.7557C30.9012 21.7055 31.074 20.6101 31.074 19.4939C31.074 18.3818 30.9025 17.2904 30.5643 16.2434C31.308 15.9641 31.9843 15.5169 32.5457 14.9223C33.5161 13.8951 34.0282 12.5513 33.9878 11.1389C33.9042 8.22289 31.4642 5.91905 28.5478 6.00227C27.1352 6.04264 25.8231 6.6307 24.8528 7.65811C24.3627 8.17696 23.9899 8.77655 23.7458 9.42497C22.6987 9.08696 21.6072 8.91538 20.4947 8.91538C19.3816 8.91538 18.2893 9.08737 17.2415 9.42579C16.4858 7.42597 14.5517 6 12.2905 6C9.37325 6 7 8.37325 7 11.2903C7 13.5513 8.42618 15.4852 10.426 16.2407C10.0874 17.2887 9.91559 18.381 9.91559 19.4939C9.91559 20.6101 10.0884 21.7055 10.4287 22.7557C8.42741 23.5106 7 25.4454 7 27.7074C7 28.5037 7.17261 29.2693 7.51309 29.9828C7.60722 30.1799 7.84327 30.2635 8.04038 30.1694C8.2373 30.0753 8.32092 29.8392 8.227 29.6421C7.9376 29.0357 7.79095 28.3848 7.79095 27.7074C7.79095 25.2266 9.80951 23.2083 12.2905 23.2083C14.7717 23.2083 16.7902 25.2266 16.7902 27.7074C16.7902 30.1884 14.7717 32.2067 12.2905 32.2067C11.1589 32.2067 10.0773 31.7851 9.24514 31.0195C9.08427 30.8716 8.83401 30.8821 8.68632 31.0428C8.53843 31.2036 8.54873 31.4537 8.7096 31.6016C9.68819 32.5019 10.9599 32.9977 12.2905 32.9977C14.555 32.9977 16.4916 31.5674 17.2448 29.563C18.2914 29.9008 19.3827 30.0724 20.4947 30.0724C21.607 30.0724 22.6985 29.9008 23.745 29.5632C24.4983 31.5676 26.4349 32.9977 28.6994 32.9977C31.6166 32.9977 33.9898 30.6244 33.9898 27.7074C33.9898 25.4454 32.5624 23.5104 30.561 22.7557V22.7557ZM25.4278 8.20106C26.253 7.32731 27.3692 6.8272 28.5706 6.7928C28.6143 6.79157 28.6575 6.79095 28.7012 6.79095C31.1231 6.79095 33.1274 8.72527 33.197 11.1613C33.2314 12.3626 32.796 13.5053 31.9709 14.3793C31.1457 15.2531 30.0295 15.7532 28.8281 15.7876C28.7844 15.7888 28.741 15.7894 28.6975 15.7894C26.2756 15.7894 24.2713 13.8551 24.2017 11.419C24.1671 10.2178 24.6027 9.07481 25.4278 8.20106ZM23.5232 28.8036C22.5487 29.1204 21.5318 29.2815 20.4947 29.2815C19.458 29.2815 18.4411 29.1204 17.4667 28.8036C17.5414 28.4497 17.5812 28.0831 17.5812 27.7074C17.5812 24.7904 15.2077 22.4173 12.2905 22.4173C11.9125 22.4173 11.5438 22.4575 11.1881 22.5331C10.8686 21.5551 10.7065 20.5345 10.7065 19.4939C10.7065 18.4566 10.8678 17.4393 11.1852 16.4638C11.5418 16.54 11.9115 16.5804 12.2905 16.5804C13.1968 16.5804 14.0909 16.3472 14.8767 15.9062C15.067 15.7993 15.1348 15.5583 15.0279 15.3678C14.921 15.1773 14.68 15.1097 14.4895 15.2166C13.8217 15.5913 13.0613 15.7894 12.2905 15.7894C9.8093 15.7894 7.79095 13.7711 7.79095 11.2901C7.79095 8.8093 9.80951 6.79095 12.2905 6.79095C14.7717 6.79095 16.7902 8.8093 16.7902 11.2903C16.7902 12.3282 16.4283 13.3408 15.7713 14.1418C15.6327 14.3105 15.6574 14.5597 15.8263 14.6984C15.995 14.8368 16.2442 14.8123 16.3828 14.6434C17.1554 13.7014 17.5812 12.5105 17.5812 11.2901C17.5812 10.9113 17.5406 10.5416 17.4646 10.185C18.4399 9.86761 19.4574 9.70633 20.4947 9.70633C21.5318 9.70633 22.5489 9.8674 23.5238 10.1844C23.4375 10.5926 23.3988 11.0139 23.4109 11.4417C23.4931 14.3062 25.8495 16.5806 28.6973 16.5804C28.7482 16.5804 28.7995 16.5797 28.8507 16.5781C29.175 16.5688 29.4938 16.5303 29.8046 16.4646C30.1218 17.4397 30.2831 18.457 30.2831 19.4939C30.2831 20.5345 30.1208 21.5551 29.8015 22.5331C29.4458 22.4573 29.0771 22.4173 28.6994 22.4173C25.7821 22.4173 23.4089 24.7904 23.4089 27.7074C23.4089 28.0833 23.4484 28.4499 23.5232 28.8036V28.8036ZM28.6994 32.2067C26.2182 32.2067 24.1998 30.1884 24.1998 27.7076C24.1998 25.2266 26.2182 23.2083 28.6994 23.2083C31.1805 23.2083 33.1989 25.2266 33.1989 27.7076C33.1989 30.1884 31.1805 32.2067 28.6994 32.2067V32.2067Z" fill="white"/>
<path d="M14.9834 8.95692C14.847 8.86424 14.6676 8.86568 14.5329 8.96084C14.3982 9.05579 14.254 9.13509 14.1024 9.19792C13.5591 8.77278 12.7716 8.77773 12.2322 9.24673C11.9518 9.49061 11.7765 9.82779 11.7358 10.192C11.1555 10.1057 10.6311 9.78618 10.2871 9.29637C10.2052 9.17979 10.0667 9.11656 9.92524 9.13015C9.78332 9.14395 9.65994 9.23293 9.60206 9.36311C9.59073 9.38865 9.32461 9.99669 9.3586 10.7409C9.38455 11.3104 9.58826 12.0445 10.3312 12.6113C10.0637 12.6977 9.78105 12.7376 9.49949 12.7263C9.31617 12.7191 9.15242 12.8383 9.10298 13.0146C9.05355 13.191 9.13161 13.3782 9.29166 13.4672C9.91206 13.8118 10.5767 13.9844 11.2262 13.9844C11.8501 13.9844 12.4598 13.825 13.0023 13.5059C13.6826 13.1057 14.177 12.4929 14.4454 11.7446C14.4538 11.7257 14.4608 11.7059 14.4664 11.6855C14.6044 11.2791 14.6767 10.834 14.6767 10.3619C14.6767 10.3413 14.6761 10.3205 14.6752 10.2999C14.901 10.0338 15.0621 9.71842 15.1453 9.37753C15.184 9.21728 15.1197 9.04961 14.9834 8.95692ZM13.8736 10.2385C13.8814 10.2797 13.8855 10.3223 13.8855 10.3631C13.8855 10.7508 13.8279 11.1098 13.7181 11.4342C13.7121 11.449 13.7072 11.4645 13.703 11.4803C13.4977 12.055 13.1238 12.5166 12.6013 12.8241C12.123 13.1057 11.5741 13.2256 11.0146 13.185C11.1428 13.1216 11.2666 13.0495 11.385 12.9691C11.5036 12.8884 11.5695 12.7498 11.5568 12.6066C11.544 12.4635 11.4546 12.3386 11.3234 12.2803C10.585 11.9522 10.1901 11.4303 10.15 10.7293C10.1417 10.5858 10.1489 10.448 10.1644 10.3217C10.7084 10.7763 11.4052 11.0243 12.1325 11.0056C12.3469 11 12.5179 10.8247 12.5179 10.6103V10.3703C12.5179 10.3687 12.5179 10.3668 12.5179 10.365C12.5152 10.165 12.6 9.97486 12.7512 9.84365C13.0338 9.59792 13.4635 9.62779 13.7092 9.91039C13.7587 9.96703 13.8217 10.0072 13.8905 10.0284C13.8664 10.0947 13.86 10.167 13.8736 10.2385Z" fill="white"/>
<path d="M27.398 11.602H27.9587V13.9602C27.9587 14.1785 28.1358 14.3557 28.3542 14.3557C28.5727 14.3557 28.7497 14.1785 28.7497 13.9602V11.602H29.3604C29.5787 11.602 29.7558 11.4249 29.7558 11.2065C29.7558 10.9882 29.5787 10.811 29.3604 10.811H28.7497V9.70455C28.7497 9.32473 29.0588 9.01556 29.4388 9.01556H29.9509C30.1692 9.01556 30.3464 8.83842 30.3464 8.62008C30.3464 8.40154 30.1692 8.22461 29.9509 8.22461H29.4388C28.6228 8.22461 27.9587 8.88847 27.9587 9.70455V10.811H27.398C27.1797 10.811 27.0026 10.9882 27.0026 11.2065C27.0026 11.4249 27.1797 11.602 27.398 11.602Z" fill="white"/>
<path d="M11.3932 29.7533C11.4874 29.7533 11.5815 29.729 11.6653 29.6806L14.3572 28.1257C14.5251 28.0289 14.6293 27.8482 14.6293 27.6544C14.6293 27.4608 14.5251 27.2801 14.3572 27.1833L11.6653 25.6284C11.4977 25.5314 11.2892 25.5314 11.1214 25.6284C10.9535 25.7252 10.8491 25.9059 10.8491 26.0997V29.2093C10.8491 29.4031 10.9535 29.5838 11.1214 29.6806C11.2052 29.7292 11.2991 29.7533 11.3932 29.7533V29.7533ZM11.64 26.5273L13.5918 27.6546L11.64 28.7819V26.5273Z" fill="white"/>
<path d="M30.4178 24.9062H26.9809C26.3839 24.9062 25.8983 25.3919 25.8983 25.9891V29.4254C25.8983 30.0225 26.3839 30.5082 26.9809 30.5082H30.4178C31.0147 30.5082 31.5004 30.0225 31.5004 29.4254V25.9891C31.5004 25.3919 31.0147 24.9062 30.4178 24.9062V24.9062ZM30.7094 29.4254C30.7094 29.5864 30.5786 29.7172 30.4178 29.7172H26.9809C26.82 29.7172 26.6892 29.5864 26.6892 29.4254V25.9891C26.6892 25.8282 26.82 25.6972 26.9809 25.6972H30.4178C30.5786 25.6972 30.7094 25.8282 30.7094 25.9891V29.4254Z" fill="white"/>
<path d="M28.6993 26.5117C28.0402 26.5117 27.5038 27.0481 27.5038 27.7072C27.5038 28.3663 28.0402 28.9025 28.6993 28.9025C29.3585 28.9025 29.8948 28.3663 29.8948 27.7072C29.8948 27.0481 29.3585 26.5117 28.6993 26.5117V26.5117ZM28.6993 28.1115C28.4763 28.1115 28.2948 27.9301 28.2948 27.7072C28.2948 27.4841 28.4763 27.3027 28.6993 27.3027C28.9224 27.3027 29.1039 27.4841 29.1039 27.7072C29.1039 27.9301 28.9224 28.1115 28.6993 28.1115Z" fill="white"/>
<path d="M23.357 15.3906C23.1384 15.3906 22.9615 15.5678 22.9615 15.7861V15.9634C22.4041 16.292 21.8181 16.5756 21.2157 16.8077C20.7333 16.9935 20.235 17.148 19.731 17.2689C19.6535 17.2094 19.5571 17.1733 19.4521 17.1733H17.6414C17.2039 17.1733 16.8481 17.5293 16.8481 17.9666V20.0434C16.8481 20.4809 17.2039 20.8366 17.6414 20.8366H18.0033L18.1404 23.4735C18.1514 23.6847 18.326 23.8484 18.5351 23.8484C18.5419 23.8484 18.5489 23.8482 18.5559 23.8478C18.774 23.8365 18.9417 23.6505 18.9304 23.4323L18.7952 20.8366H19.4521C19.5569 20.8366 19.6535 20.8008 19.7308 20.7413C20.0517 20.8187 20.371 20.9097 20.683 21.0134C20.8904 21.0819 21.1141 20.9697 21.1829 20.7625C21.2517 20.5551 21.1392 20.3312 20.932 20.2626C20.5969 20.1513 20.2542 20.0535 19.9094 19.9705V18.0399C20.4494 17.9105 20.9831 17.7447 21.4999 17.5458C21.9996 17.3532 22.489 17.1276 22.9613 16.8722V21.1388C22.7875 21.0449 22.6118 20.9553 22.4348 20.8702C22.2379 20.7755 22.0017 20.8583 21.9071 21.0552C21.8124 21.2521 21.8952 21.4883 22.0921 21.5831C22.3866 21.7248 22.6779 21.8809 22.9613 22.0474V22.2239C22.9613 22.4424 23.1384 22.6193 23.3568 22.6193C23.5751 22.6193 23.7523 22.4424 23.7523 22.2239V15.7861C23.7525 15.5678 23.5753 15.3906 23.357 15.3906V15.3906ZM19.1186 20.0455L17.6391 20.0434L17.6414 17.9643H19.1186V20.0455Z" fill="white"/>
</svg>