<svg xmlns="http://www.w3.org/2000/svg" width="40" height="40" viewBox="0 0 40 40" fill="none">
<circle cx="20" cy="20" r="20" fill="#5956E9"/>
<path d="M22.6416 8C34.513 15.8447 30.6626 24.4669 30.6626 24.4669C30.6626 24.4669 34.0341 28.1625 32.6787 31.4008C32.6787 31.4008 31.2782 29.1399 28.9562 29.1399C26.7115 29.1399 25.3848 31.4008 20.8523 31.4008C10.7774 31.4008 6 23.2213 6 23.2213C15.0813 29.0373 21.2861 24.9152 21.2861 24.9152C17.1874 22.6111 8.48768 11.5821 8.48768 11.5821C16.0695 17.8517 19.342 19.497 19.342 19.497C17.3764 17.9327 11.8934 10.2663 11.8934 10.2663C16.2819 14.5774 25.0032 20.5878 25.0032 20.5878C27.5017 13.9456 22.6416 8 22.6416 8Z" stroke="white" stroke-miterlimit="10" stroke-linecap="round" stroke-linejoin="round"/>
</svg>