<svg xmlns="http://www.w3.org/2000/svg" width="40" height="40" viewBox="0 0 40 40" fill="none">
<circle cx="20" cy="20" r="20" fill="#5956E9"/>
<path d="M30.2894 24.7996C30.4323 24.0409 30.4287 23.2619 30.2786 22.5046L32.3396 17.5309C32.3398 17.5276 32.3398 17.5243 32.3396 17.521C32.6735 16.6067 33.163 15.7569 33.7863 15.0092C33.9414 14.8454 34.0037 14.6146 33.9523 14.395L33.1072 10.7456C33.0972 10.7074 33.0821 10.6708 33.0622 10.6367C33.0586 10.6299 33.0573 10.6218 33.0537 10.6155C33.0501 10.6092 33.0343 10.5939 33.0253 10.5822C33.0069 10.5553 32.9857 10.5304 32.9619 10.508C32.9462 10.497 32.9299 10.4871 32.9128 10.4783C32.8909 10.4621 32.8676 10.448 32.8431 10.436C32.8092 10.4232 32.7738 10.4146 32.7378 10.4103C32.7275 10.4103 32.7185 10.4036 32.7081 10.4027C32.6219 10.397 32.5358 10.4162 32.4602 10.458C32.4534 10.4616 32.4453 10.463 32.4386 10.467H32.4341L29.2567 12.4501C29.0643 12.5693 28.9449 12.7774 28.939 13.0036C28.8508 13.9752 28.5948 14.9242 28.1826 15.8084V15.8133L27.1526 18.3031C26.647 18.0344 26.1058 17.8389 25.5452 17.7226C25.7574 16.2579 25.8354 14.7768 25.7783 13.2979C26.616 12.2929 27.018 10.9952 26.8952 9.69262C26.6139 7.0701 24.2439 5.17611 24.1426 5.09646C23.9904 4.97663 23.7787 4.96761 23.6169 5.07409C23.4551 5.18056 23.3795 5.37863 23.4294 5.5658C23.6611 6.43607 23.4604 7.35449 21.7487 9.24308C20.9796 9.98569 20.7358 11.1196 21.1318 12.1126C21.2831 12.4925 21.5 12.8428 21.7725 13.1476C21.6636 13.8428 21.5781 14.5012 21.5192 15.1424C21.4177 16.203 21.3915 17.2694 21.4409 18.3337C21.0395 18.5514 20.6636 18.8132 20.3204 19.1144L18.138 9.78172C18.138 9.77227 18.129 9.76552 18.1263 9.75697C18.119 9.72696 18.1084 9.69784 18.0948 9.67012L15.8656 5.5532C15.6425 5.14113 15.1712 4.92938 14.7149 5.03624C14.2587 5.14309 13.9304 5.54211 13.9135 6.01038L13.7443 10.688C13.7444 10.7217 13.7482 10.7554 13.7556 10.7883C13.7556 10.7955 13.7556 10.8018 13.7556 10.8086L15.9821 20.3109C15.6309 20.3265 15.2822 20.3785 14.9417 20.4662L12.4925 14.5511C12.2961 14.099 11.7752 13.8856 11.318 14.0701L7.57457 15.6198C7.11643 15.8111 6.8987 16.3364 7.08724 16.7957L10.409 24.809C8.46217 24.9112 6.95097 26.5455 7.00122 28.4944C7.05147 30.4433 8.64489 31.9976 10.5944 31.9993H30.3938C31.6799 31.9807 32.8584 31.2773 33.4853 30.1542C34.1122 29.0311 34.0923 27.6588 33.4331 26.5543C32.7739 25.4498 31.5755 24.7809 30.2894 24.7996ZM29.8309 13.1521L31.7172 11.975L31.0495 13.5877C30.9543 13.8173 31.0633 14.0807 31.2929 14.1758C31.5225 14.271 31.7858 14.162 31.881 13.9324L32.5488 12.3196L33.0487 14.4854C32.5139 15.138 32.0745 15.8633 31.7438 16.6395C31.2746 16.857 30.7359 16.8683 30.2581 16.6706C29.7802 16.473 29.4068 16.0845 29.2284 15.5991C29.5444 14.8162 29.7473 13.9923 29.8309 13.1521ZM28.7959 16.685C29.0936 17.0489 29.4799 17.3302 29.9177 17.5017C30.2657 17.6514 30.64 17.7303 31.0189 17.7339C31.11 17.7335 31.201 17.728 31.2915 17.7172L29.8556 21.1821C29.4257 20.2341 28.7605 19.4118 27.9234 18.7931L28.7959 16.685ZM22.6311 13.4712L24.8918 13.6093C24.9058 14.0296 24.9008 14.4643 24.8869 14.9057C24.1338 14.9595 23.3769 14.923 22.6325 14.7968C22.5758 14.7887 22.5204 14.7824 22.4642 14.7748C22.5092 14.3509 22.5641 13.9216 22.6302 13.4712H22.6311ZM22.4165 9.84742C23.6112 8.52941 24.2304 7.51559 24.3744 6.56252C25.2331 7.44608 25.8 8.57195 25.9984 9.78802C26.0929 10.8467 25.7655 11.8998 25.0876 12.7183C24.1987 12.6643 23.3196 12.6103 22.4502 12.5563C22.0767 12.2071 21.8618 11.7206 21.8552 11.2093C21.8487 10.6979 22.0511 10.2061 22.4156 9.84742H22.4165ZM22.3823 15.6716L22.5128 15.6887C23.0926 15.7784 23.6779 15.8281 24.2646 15.8376C24.4509 15.8376 24.6471 15.8228 24.8437 15.8075C24.8027 16.3866 24.7357 16.9914 24.6507 17.6164C24.5395 17.6106 24.4306 17.5998 24.319 17.5998C23.6396 17.601 22.9653 17.7171 22.3247 17.9431C22.3039 17.1855 22.3228 16.4273 22.3814 15.6716H22.3823ZM18.9016 20.9337L17.6142 15.4497C17.554 15.2118 17.3143 15.066 17.0754 15.122C16.8364 15.1779 16.6864 15.415 16.7381 15.6549L17.895 20.5908C17.5769 20.4771 17.2483 20.3952 16.914 20.3465L14.939 11.9183C15.2157 12.0442 15.5161 12.1096 15.8201 12.1099C15.8485 12.1099 15.8786 12.1059 15.9074 12.1045L16.2256 13.4631C16.2598 13.6221 16.3773 13.7502 16.5327 13.7982C16.6881 13.8462 16.8573 13.8065 16.9753 13.6945C17.0933 13.5825 17.1416 13.4156 17.1017 13.2579L16.7831 11.8985C17.0884 11.7633 17.3577 11.5583 17.5692 11.3L19.5771 19.8853C19.3163 20.2105 19.09 20.5619 18.9016 20.9337ZM16.1522 11.169C15.5767 11.2806 14.9891 11.0454 14.6497 10.5674L14.7069 8.98254C14.8634 9.01179 15.0223 9.02685 15.1816 9.02754C15.3354 9.02819 15.4888 9.01112 15.6388 8.97669C15.9423 8.89697 16.2263 8.75576 16.473 8.56181L17.2308 9.96036C17.1405 10.5406 16.7184 11.014 16.1522 11.1699V11.169ZM14.9197 5.91229C14.981 5.89809 15.0443 5.92641 15.0745 5.98158L16.0393 7.76578C15.8652 7.92323 15.6574 8.03868 15.4318 8.10327C15.2012 8.1456 14.9639 8.13436 14.7384 8.07042L14.8117 6.04278C14.8141 5.9799 14.8584 5.92645 14.9197 5.91229ZM11.6631 14.8999L12.0069 15.7305L10.342 16.4199C10.1446 16.5028 10.0329 16.7133 10.075 16.9232C10.117 17.1331 10.3012 17.2843 10.5152 17.2848C10.5744 17.2847 10.6329 17.273 10.6876 17.2506L12.3525 16.5608L12.6968 17.3923L11.8638 17.7375C11.6653 17.8196 11.5526 18.0307 11.5946 18.2413C11.6367 18.452 11.8218 18.6036 12.0366 18.6032C12.0956 18.603 12.154 18.5914 12.2085 18.5691L13.0415 18.2239L13.3857 19.0555L11.7194 19.7462C11.5209 19.8284 11.4081 20.0394 11.4502 20.2501C11.4922 20.4608 11.6773 20.6123 11.8922 20.612C11.9512 20.6118 12.0095 20.6002 12.0641 20.5778L13.729 19.8884L14.0931 20.7672C12.6267 21.4365 11.5515 22.7453 11.1794 24.3136L7.91791 16.4496L11.6631 14.8999ZM30.3938 31.0994H10.5944C9.10331 31.0994 7.89451 29.8906 7.89451 28.3995C7.89451 26.9083 9.10331 25.6995 10.5944 25.6995C10.8552 25.6987 11.1146 25.7363 11.3644 25.8111C11.4993 25.8519 11.6455 25.8271 11.7594 25.7441C11.8734 25.6611 11.9418 25.5295 11.9444 25.3886C11.9764 23.7849 12.9035 22.334 14.3454 21.6312C15.7872 20.9284 17.5012 21.0919 18.7842 22.0546C18.8976 22.139 19.044 22.1652 19.1796 22.1254C19.3152 22.0856 19.4242 21.9844 19.474 21.8522C20.3531 19.5092 22.7829 18.131 25.245 18.5788C27.7071 19.0266 29.496 21.1721 29.4939 23.6746C29.4947 24.1892 29.4181 24.701 29.2666 25.1929C29.2193 25.3459 29.2569 25.5125 29.3653 25.6304C29.4738 25.7482 29.6367 25.7996 29.7931 25.7652C29.9904 25.7218 30.1918 25.6998 30.3938 25.6995C31.8849 25.6995 33.0937 26.9083 33.0937 28.3995C33.0937 29.8906 31.8849 31.0994 30.3938 31.0994Z" fill="white"/>
<path d="M24.4022 12.0641C24.5435 12.0646 24.6768 11.9988 24.7622 11.8863C25.324 11.1259 25.5411 10.1648 25.3607 9.23679C25.3223 9.07811 25.201 8.95266 25.0437 8.90899C24.8864 8.86532 24.7178 8.91026 24.6031 9.02644C24.4884 9.14262 24.4456 9.3118 24.4913 9.46853C24.5991 10.128 24.4383 10.8031 24.045 11.3432C23.9427 11.4795 23.9262 11.662 24.0025 11.8144C24.0787 11.9669 24.2345 12.0632 24.4049 12.0632L24.4022 12.0641Z" fill="white"/>
<path d="M23.8106 25.7005C23.4759 25.7015 23.1459 25.7784 22.8453 25.9255C22.0358 24.8178 20.5244 24.4933 19.3316 25.1711C18.1388 25.8489 17.6439 27.3135 18.1812 28.5759C18.2519 28.7418 18.4149 28.8495 18.5952 28.8495C18.6558 28.8496 18.7159 28.8374 18.7716 28.8135C18.8814 28.7667 18.9681 28.6782 19.0127 28.5675C19.0572 28.4568 19.056 28.3329 19.0092 28.2231C18.9112 27.9948 18.8607 27.7489 18.8607 27.5004C18.8607 26.5063 19.6666 25.7005 20.6606 25.7005C21.3588 25.697 21.9947 26.1016 22.2874 26.7354C22.2971 26.7501 22.3076 26.7642 22.3188 26.7777C22.326 26.7932 22.3339 26.8082 22.3427 26.8227C22.3508 26.8326 22.3625 26.8371 22.3715 26.8466C22.3926 26.8685 22.416 26.8881 22.4412 26.9051C22.4637 26.9224 22.4878 26.9375 22.5132 26.9501C22.5394 26.961 22.5665 26.9695 22.5942 26.9753C22.6219 26.9825 22.6503 26.9869 22.6788 26.9883C22.7373 26.9879 22.7953 26.9781 22.8507 26.9595C22.8627 26.9573 22.8746 26.9545 22.8863 26.951C22.9009 26.9415 22.9149 26.9312 22.9281 26.9199C22.9443 26.9127 22.9601 26.9046 22.9754 26.8956C23.2117 26.7045 23.5066 26.6003 23.8106 26.6004C24.3367 26.6013 24.8144 26.9078 25.0345 27.3857C25.1377 27.6118 25.4046 27.7115 25.6307 27.6084C25.8569 27.5053 25.9566 27.2383 25.8535 27.0122C25.4871 26.2135 24.6892 25.7013 23.8106 25.7005Z" fill="white"/>
<path d="M14.9521 22.5732C14.8841 22.5953 13.2943 23.1452 13.2943 24.8002C13.2943 25.0487 13.4958 25.2502 13.7443 25.2502C13.9928 25.2502 14.1943 25.0487 14.1943 24.8002C14.231 24.1725 14.644 23.6294 15.2392 23.4264C15.4752 23.3471 15.6024 23.0915 15.5231 22.8554C15.4438 22.6193 15.1882 22.4922 14.9521 22.5714V22.5732Z" fill="white"/>
<path d="M21.2848 22.0858C21.3205 22.0949 21.3572 22.0994 21.3941 22.0993C21.6003 22.0991 21.78 21.9587 21.8301 21.7587C22.0373 20.9184 22.7811 20.3207 23.6463 20.2994C23.8948 20.2988 24.0958 20.0968 24.0952 19.8483C24.0945 19.5998 23.8926 19.3988 23.644 19.3994C22.365 19.4164 21.2598 20.2971 20.9576 21.54C20.8972 21.7811 21.0437 22.0254 21.2848 22.0858Z" fill="white"/>
</svg>