<svg xmlns="http://www.w3.org/2000/svg" width="40" height="40" viewBox="0 0 40 40" fill="none">
<path d="M39.9999 20C39.9999 20.164 39.9983 20.3273 39.9942 20.4897C39.9852 20.8628 39.9656 21.2334 39.9371 21.6007C39.9028 22.035 39.8538 22.4652 39.7918 22.8905C38.3917 32.5665 30.0636 39.9999 20 39.9999C9.60975 39.9999 1.06937 32.0767 0.0930467 21.942C0.0318749 21.3028 0 20.6555 0 20C0 19.231 0.0432812 18.4718 0.128125 17.7257C0.731405 12.3926 3.43265 7.69553 7.38694 4.47921C8.6735 3.43187 10.0922 2.54124 11.6147 1.83757C14.1649 0.657967 17.0057 0 20 0C22.9943 0 25.835 0.657967 28.3853 1.83757C29.3567 2.28656 30.2856 2.81148 31.1649 3.40413C35.6546 6.43022 38.8489 11.2302 39.7445 16.7992C39.8138 17.2245 39.8685 17.6547 39.9094 18.0889C39.9445 18.4563 39.9698 18.8269 39.9845 19.2C39.995 19.4653 39.9999 19.7322 39.9999 20Z" fill="#5956E9"/>
<path d="M6.4906 16.6553C5.00404 16.6553 3.79919 17.6136 3.79919 19.8536C3.79919 22.0944 5.00411 23.052 6.4906 23.052C7.97708 23.052 9.182 22.1867 9.182 19.8536C9.182 17.5515 7.97708 16.6553 6.4906 16.6553ZM6.4906 21.7083C5.97302 21.7083 5.55263 21.1524 5.55263 19.8536C5.55263 18.5549 5.97302 17.9989 6.4906 17.9989C7.00817 17.9989 7.4277 18.5189 7.4277 19.8536C7.4277 21.2063 7.00809 21.7083 6.4906 21.7083Z" fill="white"/>
<path d="M2.54445 18.0836C2.89874 18.0836 3.20734 18.1105 3.45382 18.2102V16.7489C3.18445 16.6705 2.89624 16.6289 2.59421 16.6289C1.60484 16.6289 0.719139 17.0355 0.128125 17.7252C0.0432812 18.4713 0 19.2305 0 19.9995C0 20.6551 0.0318749 21.3024 0.0930467 21.9416C0.684061 22.655 1.58531 23.0779 2.59429 23.0779C2.89632 23.0779 3.18452 23.0362 3.4539 22.9579V21.4403C3.18124 21.535 2.84578 21.624 2.54453 21.624C1.75023 21.624 1.10617 20.9007 1.10617 19.8534C1.10609 18.8061 1.75023 18.0836 2.54445 18.0836Z" fill="white"/>
<path d="M35.8857 18.0836C36.2391 18.0836 36.5486 18.1105 36.7943 18.2102V16.7489C36.5249 16.6705 36.2375 16.6289 35.9355 16.6289C34.1543 16.6289 32.7111 17.9456 32.7111 19.8534C32.7111 21.7619 34.1543 23.0778 35.9355 23.0778C36.2375 23.0778 36.5249 23.0362 36.7943 22.9578V21.4402C36.5225 21.5349 36.1861 21.6239 35.8857 21.6239C35.0914 21.6239 34.4473 20.9006 34.4473 19.8533C34.4473 18.8061 35.0914 18.0836 35.8857 18.0836Z" fill="white"/>
<path d="M15.6548 16.7988H13.5944L12.8778 20.2209L12.1611 16.7988H10.1006L9.31232 22.8905H10.8711L11.3011 18.7159L12.3761 22.8905H12.8778H13.3794L14.4544 18.7159L14.8844 22.8905H16.4432L15.6548 16.7988Z" fill="white"/>
<path d="M23.0987 16.7988H21.0382L20.3216 20.2209L19.605 16.7988H17.5446L16.7562 22.8905H18.3149L18.745 18.7159L19.82 22.8905H20.3216H20.8233L21.8982 18.7159L22.3283 22.8905H23.8871L23.0987 16.7988Z" fill="white"/>
<path d="M27.7666 18.0887V16.7988H26.0824H25.2761H24.4341V22.8905H25.2761H26.0824H27.7666V21.6005H26.0824V20.4897H27.5337V19.1996H26.0824V18.0887H27.7666Z" fill="white"/>
<path d="M38.9453 20.4894V21.6005H39.9371C39.9028 22.0348 39.8538 22.4649 39.7917 22.8902H37.2962V16.7988H39.7443C39.8137 17.2241 39.8684 17.6544 39.9092 18.0886H38.9453V19.1996H39.9845C39.9951 19.4649 40 19.7319 40 19.9996C40 20.1637 39.9984 20.3269 39.9943 20.4894L38.9453 20.4894Z" fill="white"/>
<path d="M31.6587 20.1416C32.2097 19.8943 32.6579 19.4437 32.6579 18.6086C32.6579 17.211 31.2424 16.7988 30.2392 16.7988H28.2326V22.8902H29.8807V20.0951L31.2424 22.8902H32.9803L31.6587 20.1416ZM29.8807 19.3873C29.8628 19.3873 29.8448 19.3873 29.8268 19.3866V17.9735C29.8448 17.9727 29.8628 17.9727 29.8807 17.9727C30.4881 17.9727 30.9803 18.1605 30.9803 18.6805C30.9803 19.2355 30.4881 19.3873 29.8807 19.3873Z" fill="white"/>
<path d="M29.0369 1.83691H9.61456C8.38402 1.83691 7.3866 2.83441 7.3866 4.06488V11.3779C7.3866 12.6085 8.38417 13.6059 9.61456 13.6059H18.8578L22.9544 15.9859L22.1363 13.6059H29.0369C30.2675 13.6059 31.2649 12.6084 31.2649 11.3779V4.06488C31.265 2.83433 30.2674 1.83691 29.0369 1.83691Z" fill="#5956E9"/>
<path d="M10.8592 12.4942C10.8558 12.4942 10.8526 12.4942 10.8493 12.4941C10.5815 12.4909 10.3322 12.3571 10.1816 12.1356C9.94372 11.7858 9.59497 10.9792 9.00513 7.82115C8.68896 6.1285 8.45131 4.53444 8.44896 4.51858C8.3824 4.07092 8.69138 3.6542 9.13904 3.58764C9.58638 3.521 10.0034 3.82999 10.07 4.27772C10.0722 4.29327 10.3046 5.85084 10.6137 7.50779C10.7923 8.4649 10.945 9.17888 11.0719 9.71013C11.8446 8.28623 12.7877 6.37139 13.2029 5.50662C13.3549 5.19006 13.6916 5.00553 14.0405 5.04795C14.3893 5.09037 14.672 5.35029 14.7437 5.69412C14.8794 6.34318 15.231 7.69474 15.7304 8.92146C15.9147 7.17732 16.2711 4.96389 16.9507 3.57069C17.1491 3.16397 17.6397 2.99506 18.0464 3.1935C18.4532 3.39194 18.6221 3.88248 18.4236 4.2892C17.343 6.50451 17.1812 11.5509 17.1796 11.6017C17.17 11.9286 16.9668 12.2183 16.6629 12.3389C16.3589 12.4595 16.0125 12.3879 15.7812 12.1567C15.0471 11.4225 14.3779 10.1574 13.792 8.39638C13.7667 8.32021 13.7421 8.24482 13.7181 8.17037C12.9998 9.5999 12.0556 11.4111 11.5255 12.1519C11.3715 12.3668 11.1233 12.4942 10.8592 12.4942Z" fill="white"/>
<path d="M23.5796 5.57963C23.2383 4.88659 22.6522 4.40737 21.8865 4.19432C21.0131 3.9519 20.0669 4.27432 19.3551 5.05799C18.5102 5.98612 17.8939 7.72572 18.6972 9.82205C19.2474 11.2588 20.1127 11.5224 20.6718 11.5224C20.7322 11.5224 20.7886 11.5192 20.8408 11.5143C22.3289 11.3731 23.5788 9.40408 23.8196 8.05392C23.9926 7.08658 23.9118 6.25393 23.5796 5.57963ZM22.2065 7.76572C22.1306 8.18775 21.8669 8.74611 21.5331 9.18775C21.1902 9.64244 20.8539 9.86697 20.6865 9.88244C20.5845 9.8922 20.3951 9.67345 20.2278 9.23587C19.8914 8.35916 19.7788 7.02689 20.5674 6.15994C20.8025 5.90119 21.076 5.75502 21.3111 5.75502C21.3584 5.75502 21.4041 5.76073 21.4474 5.77299C22.3249 6.01713 22.3444 6.99104 22.2065 7.76572Z" fill="white"/>
<path d="M29.6669 5.57963C29.4955 5.23354 29.2636 4.93963 28.9795 4.70698C28.6938 4.47432 28.3559 4.30128 27.973 4.19432C27.1003 3.9519 26.1542 4.27432 25.4416 5.05799C24.5975 5.98612 23.9812 7.72572 24.7836 9.82205C25.3339 11.2588 26.1992 11.5224 26.7583 11.5224C26.8187 11.5224 26.8759 11.5192 26.9281 11.5143C28.4154 11.3731 29.6652 9.40408 29.906 8.05392C30.0792 7.08658 29.9983 6.25393 29.6669 5.57963ZM28.293 7.76572C28.2179 8.18775 27.9534 8.74611 27.6203 9.18775C27.2767 9.64244 26.9403 9.86697 26.773 9.88244C26.6717 9.8922 26.4816 9.67345 26.3142 9.23587C25.9787 8.35916 25.8661 7.02689 26.6539 6.15994C26.8898 5.90119 27.1632 5.75502 27.3975 5.75502C27.4449 5.75502 27.4906 5.76073 27.5346 5.77299C28.4122 6.01713 28.431 6.99104 28.293 7.76572Z" fill="white"/>
</svg>