<svg xmlns="http://www.w3.org/2000/svg" width="40" height="40" viewBox="0 0 40 40" fill="none">
<circle cx="20" cy="20" r="20" fill="#5956E9"/>
<path d="M20.7 20.5L17.2714 30.4634C18.2955 30.7636 19.3783 30.9293 20.5003 30.9293C21.8307 30.9293 23.1075 30.699 24.2947 30.2813C24.2642 30.2323 24.2364 30.1802 24.2137 30.1237L20.7 20.5Z" fill="white"/>
<path d="M9.07135 19.4995C9.07135 24.0235 11.7004 27.9327 15.5128 29.7849L10.0614 14.8486C9.4275 16.2699 9.07135 17.8428 9.07135 19.4995Z" fill="white"/>
<path d="M28.2144 18.9225C28.2144 17.5102 27.7076 16.5324 27.2728 15.7704C26.6932 14.8291 26.1502 14.0322 26.1502 13.0905C26.1502 12.04 26.9468 11.0622 28.0694 11.0622C28.1202 11.0622 28.1681 11.0685 28.2177 11.0709C26.1849 9.2088 23.4763 8.07129 20.5006 8.07129C16.5074 8.07129 12.9946 10.1196 10.952 13.2227C11.2199 13.2308 11.472 13.2364 11.6873 13.2364C12.8828 13.2364 14.7335 13.0914 14.7335 13.0914C15.3501 13.0543 15.4219 13.9595 14.8068 14.0322C14.8068 14.0322 14.1875 14.1048 13.4988 14.1413L17.6598 26.5203L20.1606 19.0191L18.3796 14.141C17.7642 14.1045 17.1814 14.0319 17.1814 14.0319C16.566 13.996 16.6377 13.0546 17.2534 13.0911C17.2534 13.0911 19.1412 13.2361 20.2635 13.2361C21.4587 13.2361 23.31 13.0911 23.31 13.0911C23.9266 13.0546 23.9987 13.9592 23.3827 14.0319C23.3827 14.0319 22.7628 14.1045 22.0747 14.141L26.2052 26.4261L27.3451 22.617C27.8388 21.0364 28.2144 19.9006 28.2144 18.9225Z" fill="white"/>
<path d="M30.5277 14.0166C30.5768 14.3802 30.6049 14.7717 30.6049 15.1918C30.6049 16.3514 30.3887 17.6552 29.7362 19.2852L26.245 29.3778C29.6423 27.3964 31.9284 23.7154 31.9284 19.4999C31.9287 17.5126 31.4206 15.6442 30.5277 14.0166Z" fill="white"/>
<path d="M20.4997 5C12.4917 5 6 11.492 6 19.5C6 27.508 12.4917 34 20.4997 34C28.5077 34 34.9994 27.508 34.9994 19.5C34.9994 11.492 28.5077 5 20.4997 5ZM20.5003 32.2109C13.491 32.2109 7.7894 26.5093 7.7894 19.4994C7.7894 12.4907 13.4907 6.7891 20.5003 6.7891C27.5087 6.7891 33.21 12.491 33.21 19.4994C33.2103 26.5087 27.5084 32.2109 20.5003 32.2109Z" fill="white"/>
</svg>